<svg width="48" height="23" viewBox="0 0 48 23" fill="none" xmlns="http://www.w3.org/2000/svg">
<path d="M10.9766 22.0154C11.3828 22.0233 11.7539 21.7811 11.918 21.41C12.0781 21.035 11.9961 20.6014 11.711 20.3123L3.73438 12.0037L46.9883 12.0037C47.3477 12.0076 47.6836 11.8201 47.8633 11.5076C48.0469 11.1951 48.0469 10.8123 47.8633 10.4998C47.6836 10.1873 47.3477 9.99983 46.9883 10.0037L3.73438 10.0037L11.711 1.69513C12.0938 1.29673 12.0781 0.663925 11.6797 0.281025C11.2813 -0.101775 10.6485 -0.0900755 10.2656 0.312325L-2.28882e-05 11.0037L10.2656 21.6951C10.4492 21.8943 10.7071 22.0076 10.9766 22.0154Z" fill="white"/>
</svg>
