<svg width="25" height="45" viewBox="0 0 25 45" fill="none" xmlns="http://www.w3.org/2000/svg">
<path d="M0.000209505 22.0599C0.0080225 22.5794 0.21896 23.0755 0.586148 23.4427L20.5861 43.4427C21.0861 43.9661 21.8322 44.177 22.5354 43.9934C23.2346 43.8099 23.7815 43.263 23.9651 42.5638C24.1486 41.8606 23.9377 41.1145 23.4143 40.6145L4.82833 22.0286L23.4143 3.44267C23.9377 2.94267 24.1486 2.19657 23.9651 1.49345C23.7815 0.794227 23.2346 0.247353 22.5354 0.0637589C21.8322 -0.119835 21.0861 0.0911031 20.5861 0.61454L0.586148 20.6145C0.203335 20.9974 -0.0076025 21.5169 0.000209505 22.0599Z" fill="white"/>
</svg>
