<svg width="48" height="23" viewBox="0 0 48 23" fill="none" xmlns="http://www.w3.org/2000/svg">
<path d="M37.0244 0.000183547C36.6182 -0.00762845 36.2471 0.234558 36.083 0.605652C35.9229 0.980652 36.0049 1.41425 36.29 1.70331L44.2666 10.0119H1.0127C0.653321 10.008 0.317382 10.1955 0.137696 10.508C-0.0458985 10.8205 -0.0458985 11.2033 0.137696 11.5158C0.317382 11.8283 0.653321 12.0158 1.0127 12.0119H44.2666L36.29 20.3205C35.9072 20.7189 35.9229 21.3517 36.3213 21.7346C36.7197 22.1174 37.3525 22.1057 37.7354 21.7033L48.001 11.0119L37.7354 0.320496C37.5518 0.121277 37.2939 0.00799655 37.0244 0.000183547Z" fill="white"/>
</svg>
