<svg width="25" height="45" viewBox="0 0 25 45" fill="none" xmlns="http://www.w3.org/2000/svg">
<path d="M24.0291 21.9987C24.0213 21.4792 23.8103 20.9831 23.4431 20.6159L3.44315 0.61593C2.94315 0.0924923 2.19706 -0.118445 1.49393 0.0651484C0.794713 0.248742 0.247839 0.795618 0.0642447 1.49484C-0.119349 2.19796 0.091589 2.94406 0.615026 3.44406L19.201 22.03L0.615026 40.6159C0.091589 41.1159 -0.119349 41.862 0.0642447 42.5651C0.247839 43.2644 0.794713 43.8112 1.49393 43.9948C2.19706 44.1784 2.94315 43.9675 3.44315 43.4441L23.4431 23.4441C23.826 23.0612 24.0369 22.5417 24.0291 21.9987Z" fill="white"/>
</svg>
