<svg width="62" height="62" viewBox="0 0 62 62" fill="none" xmlns="http://www.w3.org/2000/svg">
<path d="M34.6472 23.9362C29.5274 18.8163 23.9514 15.649 20.5364 15.6251C19.5336 15.6183 18.717 15.8814 18.1533 16.4451C15.6677 18.9308 19.0211 26.3159 25.6443 32.9391C32.2675 39.5623 39.6509 42.9158 42.1383 40.4301C44.6239 37.9445 41.2704 30.5594 34.6472 23.9362Z" fill="#4E342E"/>
<path d="M50.646 37.834L48.9377 39.5423L48.0835 40.3965L49.1768 41.4898L50.646 42.959L52.3543 41.2507L53.2085 40.3965L51.9272 39.1152L50.646 37.834Z" fill="#FBC02D"/>
<path d="M18.1875 56.625L16.4792 58.3333L15.625 59.1875L16.8242 60.3867L18.1875 61.75L19.6823 60.2552L20.75 59.1875L19.8975 58.3333L18.1875 56.625Z" fill="#1976D2"/>
<path d="M13.0625 0.25L11.3097 2.00275L10.5 2.8125L11.2209 3.53342L13.0625 5.375L14.3745 4.063L15.625 2.8125L14.2088 1.39629L13.0625 0.25Z" fill="#FBC02D"/>
<path d="M31.854 0.25L29.7681 2.33588L29.2915 2.8125L29.9509 3.47192L31.854 5.375L34.4165 2.8125L31.854 0.25Z" fill="#1976D2"/>
<path d="M35.271 10.5L33.6071 12.1639L32.7085 13.0625L33.8702 14.2242L35.271 15.625L36.7641 14.1319L37.8335 13.0625L36.6565 11.8855L35.271 10.5Z" fill="#FF8F00"/>
<path d="M59.1875 19.041L58.0395 20.189L56.625 21.6035L57.5868 22.5653L59.1875 24.166L60.7626 22.5909L61.75 21.6035L60.7592 20.6127L59.1875 19.041Z" fill="#F50057"/>
<path d="M2.8125 31L1.05121 32.7613L0.25 33.5625L1.21179 34.5243L2.8125 36.125L4.46788 34.4696L5.375 33.5625L4.44225 32.6298L2.8125 31Z" fill="#1976D2"/>
<path d="M58.3332 42.959L56.1448 45.1474L54.9165 46.3757L56.0645 47.5237L58.3332 49.7923L60.7351 47.3904L61.7498 46.3757L60.923 45.5488L58.3332 42.959Z" fill="#FF8F00"/>
<path d="M30.9998 49.791L28.6509 52.14L27.5832 53.2077L28.4903 54.1148L30.9998 56.6243L33.3488 54.2754L34.4165 53.2077L33.6153 52.4065L30.9998 49.791ZM24.1665 24.166C24.3134 24.0345 25.8748 19.041 25.8748 13.916C25.8748 11.7481 25.2872 10.0706 24.1272 8.92768C22.2344 7.06389 19.3388 7.09293 19.2909 7.08268H19.0415V3.66602H19.255C19.3832 3.66943 23.5413 3.58572 26.4915 6.46256C28.3502 8.27339 29.2915 10.7812 29.2915 13.916C29.2915 20.7493 24.1665 24.166 24.1665 24.166ZM61.7498 61.7493H58.3332V61.5358C58.2529 59.0792 57.4073 56.6243 56.8384 56.6243C55.593 56.6243 54.3681 58.1243 53.3841 59.3303C52.325 60.6287 51.411 61.7493 50.005 61.7493C47.651 61.7493 47.1282 58.9545 46.6225 56.2536C46.5371 55.7975 46.4278 55.2116 46.3031 54.6546C46.216 54.8323 46.1288 55.0048 46.0503 55.1671C44.453 58.4044 42.801 61.7493 40.1821 61.7493C38.1629 61.7493 36.1248 60.164 36.1248 56.6243H39.5415C39.5415 57.6306 39.8046 58.3327 40.1821 58.3327C40.8364 58.0115 42.3432 54.9587 42.9872 53.6553C44.2172 51.1628 44.8937 49.791 46.3748 49.791C48.8895 49.791 49.443 52.7567 49.9811 55.625C50.087 56.187 50.2305 56.9626 50.3877 57.5981C50.509 57.4529 50.6286 57.306 50.7379 57.171C52.1029 55.4986 53.9718 53.2077 56.8384 53.2077C61.2732 53.2077 61.7071 60.1025 61.7498 61.4846V61.7493Z" fill="#F50057"/>
<path d="M25.6444 32.9396C19.6857 26.9809 16.3886 20.4192 17.5947 17.3494L17.581 17.334L0.25 58.334L41.25 41.0029L41.238 40.9876C38.1699 42.1954 31.6047 38.9 25.6444 32.9396Z" fill="#FFB300"/>
<path d="M19.5678 25.2148L0.25 58.3326L23.7515 30.9138C22.0466 28.9851 20.6304 27.0428 19.5678 25.2148Z" fill="#FFE57F"/>
<path d="M60.0418 0.250871C56.5961 0.307246 54.2027 1.05037 52.8105 2.43241C52.0195 3.21654 51.5719 4.20737 51.5087 5.30925C51.507 5.32975 51.5002 5.4425 51.5002 5.47666C51.5309 7.60866 52.5764 9.45537 52.9437 10.0721C53.012 10.1882 53.1316 10.424 53.1572 10.5094C52.2399 10.4667 50.5828 10.1267 49.5441 9.90466C46.4879 9.25379 43.8537 8.69004 42.2786 9.96104C41.6157 10.4992 41.2502 11.2952 41.2502 12.2075C41.2502 14.1772 42.5246 15.9129 43.5479 17.3086C43.9715 17.886 44.6122 18.7572 44.6668 19.0408C44.6668 19.9275 44.0467 20.2606 40.7684 21.1489C37.0852 22.1466 31.0002 24.1658 27.5835 29.2908C32.7085 25.8742 38.0077 25.4368 41.6602 24.4477C44.8189 23.5935 48.0835 22.7086 48.0835 19.0408C48.0835 17.7135 47.2191 16.5347 46.3017 15.2859C45.6816 14.4403 44.9333 13.4204 44.7232 12.609C45.6645 12.5816 47.5983 12.9831 48.83 13.2462C50.5042 13.6032 52.0434 13.9073 53.2768 13.9124V13.9158C54.7392 13.9158 55.7625 13.1625 56.193 12.515L56.3587 12.2007C56.5534 11.7155 56.6252 11.2389 56.6252 10.7981C56.6252 9.604 56.0922 8.66783 55.9794 8.48333C55.7351 8.11604 55.0057 6.83991 54.9356 5.58258C54.9339 5.55525 54.9339 5.46812 54.9356 5.45274C54.9595 5.2187 55.0381 5.0325 55.2175 4.85654C55.5062 4.56954 56.7516 3.64191 60.896 3.66583H61.7502V0.249163C61.7502 0.249163 60.2827 0.245746 60.0418 0.250871Z" fill="#FF8F00"/>
<path d="M58.3335 37.8327H61.7502C61.7502 37.5388 61.7331 37.2536 61.7023 36.9785C61.007 30.9361 52.9386 29.291 48.0835 29.291C37.8335 29.291 32.7085 34.416 32.7085 34.416C32.7085 34.416 37.8335 32.7077 48.0835 32.7077C48.186 32.7077 58.3335 32.8478 58.3335 37.8327Z" fill="#1976D2"/>
<path d="M8.15104 15.625C4.22871 15.625 3.70938 15.0202 3.69229 14.9997C3.69229 14.9997 3.66667 14.94 3.62908 14.9348C3.82896 14.6034 4.98892 14.0516 5.61246 13.7561C6.90737 13.1411 8.35092 12.4526 8.70796 11.1406C8.76262 10.9425 8.79167 10.7289 8.79167 10.5C8.79167 10.2728 8.77117 10.061 8.73358 9.85938C8.41583 8.1835 6.86637 7.37375 5.70129 6.76387C4.15012 5.95242 3.66667 5.56633 3.66667 4.73438C3.66667 3.74354 5.09996 3.67008 5.38867 3.66667H5.375V0.25C3.31475 0.25 0.25 1.44412 0.25 4.73438C0.25 7.76837 2.67071 9.03425 4.11767 9.79104C4.38246 9.93112 4.72583 10.1105 4.98892 10.2574C4.71217 10.4009 4.39613 10.5512 4.14329 10.6725C2.50158 11.4532 0.25 12.5244 0.25 14.7708C0.25 19.0417 5.39037 19.0417 8.15104 19.0417C8.26721 19.0417 8.37142 19.0468 8.46367 19.0553C7.72908 19.8497 5.75767 21.2335 2.02667 22.5574L3.16954 25.7776C5.8875 24.8124 12.2083 22.185 12.2083 18.6146C12.2083 17.1745 10.939 15.625 8.15104 15.625Z" fill="#FF8F00"/>
</svg>
