<svg width="748" height="788" viewBox="0 0 748 788" fill="none" xmlns="http://www.w3.org/2000/svg">
<path d="M374.001 3.44451e-05C268.666 0.0211507 118.808 9.77419 52.4102 14.4962C32.8192 15.8894 17.3512 31.2816 15.9023 50.8685C10.7802 120.112 -0.11754 280.842 0.000958627 393.5C0.120169 506.835 11.4903 668.531 16.8113 738.073C18.3119 757.685 33.8661 773.05 53.4914 774.366C119.794 778.81 269.068 787.967 374.001 788C479.613 788.033 629.831 778.853 696.658 774.385C716.436 773.063 732.063 757.476 733.392 737.699C738.081 667.944 748.028 506.599 748.001 393.5C747.974 281.01 738.058 120.54 733.385 51.1423C732.058 31.4343 716.536 15.8794 696.833 14.4805C630.096 9.74242 479.718 -0.0211584 374.001 3.44451e-05Z" fill="#fff"/>
</svg>
