<svg xmlns="http://www.w3.org/2000/svg" viewBox="0 0 50 50">
  <path d="M25 2C12.309295 2 2 12.309295 2 25C2 37.690705 12.309295 48 25 48C37.690705 48 48 37.690705 48 25C48 12.309295 37.690705 2 25 2 z M 25 4C36.609824 4 46 13.390176 46 25C46 36.609824 36.609824 46 25 46C13.390176 46 4 36.609824 4 25C4 13.390176 13.390176 4 25 4 z M 23.800781 14.300781C23.500781 14.300781 23.400391 14.499219 23.400391 14.699219L23.400391 28.199219C23.400391 28.499219 23.600781 28.599609 23.800781 28.599609L26.099609 28.599609C26.399609 28.599609 26.5 28.399219 26.5 28.199219L26.5 14.699219C26.5 14.399219 26.299609 14.300781 26.099609 14.300781L23.800781 14.300781 z M 23.800781 32.300781C23.500781 32.300781 23.400391 32.499219 23.400391 32.699219L23.400391 35.300781C23.400391 35.600781 23.600781 35.699219 23.800781 35.699219L26.199219 35.699219C26.499219 35.699219 26.599609 35.500781 26.599609 35.300781L26.599609 32.699219C26.599609 32.399219 26.399219 32.300781 26.199219 32.300781L23.800781 32.300781 z" fill="#FFFFFF" />
</svg>