<svg width="44" height="44" viewBox="0 0 44 44" fill="none" xmlns="http://www.w3.org/2000/svg">
<path d="M12.8298 0C5.75492 0 0 5.76025 0 12.8369V31.1702C0 38.2451 5.76025 44 12.8369 44H31.1702C38.2451 44 44 38.2398 44 31.1631V12.8298C44 5.75492 38.2398 0 31.1631 0H12.8298ZM34.8333 7.33333C35.8453 7.33333 36.6667 8.15467 36.6667 9.16667C36.6667 10.1787 35.8453 11 34.8333 11C33.8213 11 33 10.1787 33 9.16667C33 8.15467 33.8213 7.33333 34.8333 7.33333ZM22 11C28.0665 11 33 15.9335 33 22C33 28.0665 28.0665 33 22 33C15.9335 33 11 28.0665 11 22C11 15.9335 15.9335 11 22 11ZM22 14.6667C20.0551 14.6667 18.1898 15.4393 16.8146 16.8146C15.4393 18.1898 14.6667 20.0551 14.6667 22C14.6667 23.9449 15.4393 25.8102 16.8146 27.1854C18.1898 28.5607 20.0551 29.3333 22 29.3333C23.9449 29.3333 25.8102 28.5607 27.1854 27.1854C28.5607 25.8102 29.3333 23.9449 29.3333 22C29.3333 20.0551 28.5607 18.1898 27.1854 16.8146C25.8102 15.4393 23.9449 14.6667 22 14.6667Z" fill="white"/>
</svg>
