<svg id="Capa_1" data-name="Capa 1" xmlns="http://www.w3.org/2000/svg" viewBox="0 0 227.98 173.63"><defs><style>.cls-1{fill:#004b1c;}</style></defs><title>iso-color</title><path class="cls-1" d="M2456.57,285.22l-14.94,3.07,0.14,0.53,19.29-1.87,0.26,1.41c-10.52.71-18.83,6.5-27.5,11.48-9.48,5.44-19,4.92-28.35.33,9.67-4.05,19.29-8.22,29-12.12A46.9,46.9,0,0,1,2456.57,285.22Z" transform="translate(-2357.5 -130.15)"/><path class="cls-1" d="M2482.06,287l19.35,1.8,0.13-.57-14.83-2.92a46,46,0,0,1,22.25,2.81c9.65,3.85,19.17,8,28.82,12.08-8.66,4.34-17.58,5.09-26.6.52-3.67-1.86-7-4.38-10.75-6.05-6-2.67-12.11-4.88-18.19-7.29Z" transform="translate(-2357.5 -130.15)"/><path class="cls-1" d="M2585.14,259.34c0.28,11.43-10.57,20.72-27.14,17.09l15.1-4.77-0.4-1.27-9.17,3.41-0.24-.58,3-1.83-0.13-.44-12.43,3C2562.55,264.39,2570.93,255.73,2585.14,259.34Z" transform="translate(-2357.5 -130.15)"/><path class="cls-1" d="M2389.88,274.26l-15-4.43-0.2.24,5.51,3.2-0.2.57-9.44-3.51c4.09,4.06,9.52,4.75,15.42,5.59-12,3.66-27.29-1.06-28-16.57C2372,255.57,2380.67,264.19,2389.88,274.26Z" transform="translate(-2357.5 -130.15)"/><path class="cls-1" d="M2471.82,290.34a6.12,6.12,0,0,1,6.32,6,6.25,6.25,0,0,1-5.94,6.43A6.23,6.23,0,1,1,2471.82,290.34Z" transform="translate(-2357.5 -130.15)"/><path class="cls-1" d="M2410.6,193.41c1,1.4,2.32,2.4,2.16,3.08-0.22,1-1.46,1.82-2.26,2.71-0.83-.91-2.09-1.71-2.32-2.75C2408,195.79,2409.43,194.8,2410.6,193.41Z" transform="translate(-2357.5 -130.15)"/><path class="cls-1" d="M2536,196.81c-1.45,1.07-2.53,2.41-3.18,2.23-1-.29-1.75-1.6-2.61-2.48,0.94-.75,1.81-1.93,2.84-2.09C2533.8,194.35,2534.72,195.69,2536,196.81Z" transform="translate(-2357.5 -130.15)"/><path class="cls-1" d="M2539.19,277.58c-6.2-2.08-12.9-2.65-19.38-3.9l-3.92-.77c2.5-.45,5-0.9,7.21-0.37,8.76,2.06,16.73-.11,24.62-3.7,15.8-7.18,22.88-18.55,21.93-35.58-0.93-16.79-17.51-31-34.11-29.19a67.73,67.73,0,0,0-8.18,1.92c-2.83-6.33-6-12.33-8.18-18.66a51.26,51.26,0,0,1-2.6-14.21,12.37,12.37,0,0,1,5.29-11.33A12.4,12.4,0,0,0,2527,151c0-2.22-.94-3.16-3.14-3.17-5.15,0-9,2.29-12.29,6.1a10.25,10.25,0,0,1-4.77,3.16c-10.57,2.77-19.8.21-27.29-7.79a6.59,6.59,0,0,1-1.41-4.54c0.39-5.09-.29-9.69-4.14-13.44-1.56-1.52-2.88-1.62-4.44,0a15,15,0,0,0-4.25,12.65c0.16,1.67-.1,3.9-1.11,5.07a25.59,25.59,0,0,1-21.64,9.11c-4.6-.25-8.93-1-12-5.52-2.41-3.48-6.52-4.84-10.92-4.78-2.43,0-3.39,1.25-3.28,3.52a13.28,13.28,0,0,0,5.5,10.62c3.59,2.55,4.47,6,4.94,10,1.55,13-7.1,22.72-10.36,34.09-3.31-.78-6.06-1.8-8.86-2-13.09-1-22.85,5-29.32,15.81-7,11.72-6.47,24,.73,35.5,5.52,8.85,14.55,13,24,16.25,3.92,1.35,7.72,2.3,12,1.41,4.1-.85,8.42-0.66,12.64-0.93l0.2,0.75a19,19,0,0,1-3.23.7c-9.47.41-18.37,3.24-27.31,6.1a61.86,61.86,0,0,1-29.58,2.51c-3.31-.56-6.58-1.31-10.2-2a46.76,46.76,0,0,0,33.88,16.83c12.27,0.45,23.35-3.35,34-8.85,10.17-5.23,20.85-7.64,32.24-5.33,3.67,0.75,7.24,2,11.64,3.19a45.34,45.34,0,0,0-21.78-13.9c-7.62-2.34-15.44-4-23-6.56a30.71,30.71,0,0,1-14.87-10.37c-4.19-5.43-3.92-10.89.7-15.9l2.1-2.27c-7.76-1.76-14.15-1-18.66,6.09,4.69-12.16,10.4-17.22,19.67-17.77a10.13,10.13,0,0,1,.6,1.64c1.85,9.63,7.17,17.17,14.24,23.65,12.32,11.28,27,18.86,41.79,26.14a4.5,4.5,0,0,0,3.47-.1c13.94-6.81,27.67-14,39.52-24.2,7.8-6.7,14.19-14.48,16-25,0.4-2.3,1.51-2.32,3.43-1.94,8.71,1.74,13.11,7.76,16.2,16.55-5.09-6.19-10.87-6.58-17.79-5,1,1.09,1.43,1.64,1.93,2.17,4.84,5.19,5.28,10.23.93,15.79a31.37,31.37,0,0,1-6.52,6.11c-6.32,4.49-13.63,6.54-21.08,8.4a132.39,132.39,0,0,0-18.44,6,32,32,0,0,0-13.89,11.12c16.68-7.38,31.72-5.16,46.54,2.71,10.42,5.53,21.6,8.53,33.55,7.57,12.82-1,23.12-6.92,31.51-16.58C2569.65,285.11,2554.43,282.7,2539.19,277.58Zm-118.35-71.32a116.46,116.46,0,0,1,5-12.11c5.6-11.17,7.62-22.4,1.45-34a8.72,8.72,0,0,1-.27-1.91c18,7.57,32.92,4.58,44.73-11.6,11.71,16.17,26.67,19.15,44.66,11.63a13,13,0,0,1-.62,2.83c-5.42,10.33-4,20.47.67,30.6,2.18,4.76,4.2,9.6,6.11,14.47,0.42,1.06.06,2.43,0.06,3.65l-1.33.19c-1-2.58-2.06-5.16-3.07-7.75-2.62-6.72-6-13.28-7.59-20.23-1.16-5,0-10.56.14-15.88,0-.7.14-1.4,0.28-2.75-15.75,4.16-28.87.36-39.34-12.26-10.61,12.74-23.82,16.57-40.06,11.94,6.86,18.14-4.31,31.73-9.34,46.71l-1.32,0C2420.88,208.62,2420.46,207.29,2420.84,206.26Zm102.95,25.18a29.59,29.59,0,0,1-2.71,5.59,42,42,0,0,1-2.39,3.47A67.19,67.19,0,0,1,2504.52,254c-2.34,1.7-4.75,3.31-7.2,4.86-1.84,1.16-3.7,2.3-5.57,3.42-0.71.43-1.43,0.83-2.15,1.24-5,2.89-10.17,5.52-15.33,8.14a6.93,6.93,0,0,1-1,.41,5.34,5.34,0,0,1-2.7.25,2,2,0,0,1-.43-0.15c-3.71-1.87-7.42-3.74-11.08-5.7s-7.27-4-10.78-6.15a105.64,105.64,0,0,1-19.66-15.23,43.55,43.55,0,0,1-5.51-6.69,29.49,29.49,0,0,1-4.38-10.19,3.34,3.34,0,0,1,0-1.26c0.05-.29.12-0.59,0.2-0.88s0.24-.89.31-1.33h0c0.67,0.88,1.73,1.68,2,2.66a32.57,32.57,0,0,0,2.89,7.74,36.16,36.16,0,0,0,11.77,12.9c6.86,4.7,14,9,21.14,13.3l8.6,5.1,4.29,2.56a3.43,3.43,0,0,0,1.69.39,4,4,0,0,0,1.73-.35c5.86-2.95,11.69-5.94,17.33-9.25,2.42-1.42,4.8-2.89,7.13-4.44a103.39,103.39,0,0,0,13.29-10.38c5.41-5,9.54-10.85,11.26-18.19a3.55,3.55,0,0,1,.94-1.46l0.25-.28c0.17-.18.33-0.37,0.47-0.56h0l0.54,0.41,0.54,0.41A23.52,23.52,0,0,1,2523.79,231.44Zm-2.09-7.9c-1.11,3.6-1.61,6.5-2.85,9-4.46,9.05-12,15.3-20.24,20.63-7.84,5.1-16.12,9.53-24.3,14.07a5.55,5.55,0,0,1-4.43.38c-13.4-6.76-26.63-13.85-37.51-24.47-4.34-4.23-7.88-9.05-9.59-15a22.3,22.3,0,0,1-.28-4.25c-5.63-3.17-12.25-1.81-18.83-.9,9.25-4.4,17.79-2.88,25.77,3.2l1-.49c-1.72-3.78-3.06-7.8-5.27-11.26-1.54-2.41-2-4.38-.87-6.89,1.91-4.34,3.57-8.8,5.66-13,4.33-8.8,6.11-17.91,4.17-27.62a9.51,9.51,0,0,1,.1-1.88c14.75,3.19,27.28-.58,37.5-12.06,10.17,11.34,22.51,15.3,36.79,12.14,0.3,6.29,0,12.31,1,18.08,0.85,4.69,3.27,9.11,5.08,13.62q1.74,4.34,3.72,8.59c1.68,3.6,2.08,6.69-.82,10.25-2.15,2.64-2.95,6.37-4.42,9.79,5-1.72,9.16-3.43,13.5-4.6,4.5-1.22,8.84-.14,12.92,2.17C2533.14,222.17,2526.78,220.88,2521.7,223.54Z" transform="translate(-2357.5 -130.15)"/><path class="cls-1" d="M2440.63,174.12h20.14c-2.49,11.24-.88,22.47-1.14,33.63,0,0.7,1.51,2.05,2.35,2.07,6.62,0.17,13.25.2,19.86,0,0.88,0,2.43-1.73,2.44-2.68,0.16-9.12.14-18.24,0-27.36,0-1.79-.84-3.56-1.35-5.57H2503c-0.79,3-2.26,6-2.3,9.12-0.23,17.37-.09,34.74-0.13,52.11,0,3.14.44,6,4.58,8h-22.07c2.6-10,.87-20.27,1.19-30.4a3.17,3.17,0,0,0-2.25-2.13q-10.12-.26-20.24,0a3.2,3.2,0,0,0-2.18,2.25q-0.14,12.55.16,25.1c0,1.66.82,3.31,1.32,5.2H2440.7c0.86-2.38,2.57-5,2.6-7.59q0.29-27.17-.13-54.35C2443.14,179,2441.53,176.63,2440.63,174.12Z" transform="translate(-2357.5 -130.15)"/></svg>