<svg id="Capa_1" data-name="Capa 1" xmlns="http://www.w3.org/2000/svg" viewBox="0 0 210.48 210.2"><defs><style>.cls-1{fill:#fefeff;}.cls-2{fill:#066;}</style></defs><title>iso</title><path class="cls-1" d="M-1088.92-436.71c-58.31-.18-105.32-47.32-105.1-105.39A105.09,105.09,0,0,1-1088.5-646.91c58.13,0.18,105.12,47.28,105,105.22a105.18,105.18,0,0,1-105.38,105m-57.66-159.51-0.58.31c0,0.16-.08.18-0.21,0.12l0.19-.13,0.58-.31,0.09,0-0.06,0m-0.5,123-0.14,0,0.11-.07,0.23-.13-0.16-.08,0,0.24m-9.46-109,1.89-.82,44.1-19,0.23,0.32c-0.41.27-.8,0.56-1.22,0.81q-26.85,16-53.7,31.95a3.07,3.07,0,0,0-1.66,1.25h-0.1l0.07,0,23.43-10,31.16-13.29,0.24,0.26c-0.4.27-.8,0.57-1.21,0.82l-44.36,26.81-12,7.26c9-3.72,17.92-7.61,26.84-11.49q10.21-4.44,20.44-8.83l0.17,0.18c-0.39.28-.77,0.59-1.18,0.84l-49.32,30.36c-0.43.26-.84,0.55-1.26,0.83,2.36-.77,4.61-1.72,6.87-2.66l39.08-16.31,0.2,0.28c-0.4.28-.78,0.59-1.19,0.85-15.3,9.63-30.76,19-45.94,28.83a2.17,2.17,0,0,0-1.24,1.17l47.92-19.21,0.17,0.35-48.55,32.12a2,2,0,0,0,1.21-.18q18.16-7.45,36.32-14.89c5-2,10-4,15-6.05l0.21,0.24-20.28,14.32L-1172.62-505l-0.18.18h0.17l0-.21a1.82,1.82,0,0,0,1.5-.4l52.12-23.4a2.05,2.05,0,0,1,1.79-.37l-49.72,35,0.16,0.28,63.06-26,0.16,0.34-55.13,36a1.81,1.81,0,0,0,1.2-.14q29.13-12,58.26-24.05c4.55-1.87,9.11-3.69,13.67-5.53l0.14,0.17c-0.43.32-.85,0.65-1.31,0.95l-58.34,37.44a3.85,3.85,0,0,0-1.46,1.12,1.63,1.63,0,0,0,1.19-.32l70.31-31.14c4.67-2.07,9.37-4.09,14.06-6.13l0.18,0.21c-0.32.23-.64,0.46-1,0.67l-66.39,42.67a3.34,3.34,0,0,0-1.51,1.24c0.51-.18.88-0.29,1.23-0.43l48.73-19.6q18.48-7.43,37-14.83a2,2,0,0,0,.19.22c-0.39.29-.76,0.61-1.16,0.87q-28,18.2-55.93,36.39c-3,2-6.08,3.77-8.94,5.95l-0.18.07a0.16,0.16,0,0,1,0-.08,0.32,0.32,0,0,1,.11,0c0.51-.19,1-0.36,1.51-0.56q13.29-5.53,26.56-11.08a8.29,8.29,0,0,1,3.29-.65,78.76,78.76,0,0,0,11.5-.83,91.76,91.76,0,0,0,44-19c9.06-7.16,16.48-15.69,21.06-26.45a21.3,21.3,0,0,0,1.64-4.82,3.29,3.29,0,0,0-.49-0.23q-20.94-5.4-41.88-10.81a2,2,0,0,0-1.89.33,59.21,59.21,0,0,1-6.67,4.09c-9.82,5.13-20.1,7.9-31.31,6.39-19.42-2.62-33.08-21.45-32.87-38.32a38.35,38.35,0,0,1,7-21.32c5.68-8.39,13.33-14.58,22-19.58a5.28,5.28,0,0,0,2-2c4.21-7.35,8.46-14.68,12.68-22a1.77,1.77,0,0,0,.52-1.37,83.26,83.26,0,0,0-13.67,1.37,103.08,103.08,0,0,0-41.32,17.39,55.06,55.06,0,0,1-8.43,4.84c-3.44,1.58-6.85,3.24-10.27,4.87-0.45.22-.89,0.46-1.33,0.69l0.1,0.21,42-17,0.15,0.34-1.26.73-50.7,29.21a4.54,4.54,0,0,0-1.85,1.29l-0.21,0h0.18m26.46,115.82-0.06.08h0.11Zm-15.41-130.32-0.11.08a0.24,0.24,0,0,0,.1.08,0.24,0.24,0,0,0,.1-0.07l-0.09-.1m-31.09,64.85-0.11.08a0.24,0.24,0,0,0,.09.08,0.25,0.25,0,0,0,.1-0.07l-0.09-.1m17.47,48.58-0.09.07a0.21,0.21,0,0,0,.08.07,0.21,0.21,0,0,0,.09-0.06l-0.08-.08" transform="translate(1194.02 646.91)"/><path class="cls-2" d="M-1061-511.24c-4.69,2-9.38,4.06-14.06,6.13L-1145.35-474a1.63,1.63,0,0,1-1.19.32,3.88,3.88,0,0,1,1.46-1.12l58.34-37.44c0.45-.29.87-0.63,1.31-0.94,0.17-.08.43,0,0.43-0.33a0.41,0.41,0,0,0-.58.16c-4.56,1.84-9.13,3.66-13.67,5.53q-29.13,12-58.26,24.05a1.82,1.82,0,0,1-1.21.14l55.13-36-0.16-.35-63.06,26-0.16-.28,49.72-35a2.06,2.06,0,0,0-1.79.37l-52.12,23.4a1.82,1.82,0,0,1-1.51.4l0,0,28.48-20.12,20.28-14.32c0.13-.13.43-0.12,0.38-0.42a0.44,0.44,0,0,0-.58.18c-5,2-10,4-15,6.05q-18.17,7.43-36.32,14.89a2,2,0,0,1-1.21.18l48.55-32.12-0.17-.36-47.92,19.21a2.18,2.18,0,0,1,1.24-1.17c15.18-9.82,30.64-19.19,45.94-28.83,0.41-.26.79-0.56,1.19-0.85a1.36,1.36,0,0,0,.27-0.24c-0.12-.24-0.3-0.11-0.47,0l-39.08,16.31c-2.26.94-4.52,1.89-6.87,2.66,0.42-.28.83-0.56,1.26-0.83l49.32-30.36c0.41-.25.79-0.56,1.18-0.85l0.53-.2a0.45,0.45,0,0,0-.69,0q-10.22,4.41-20.44,8.83c-8.92,3.87-17.83,7.77-26.84,11.49l12-7.26,44.36-26.81c0.42-.25.81-0.55,1.21-0.82a1.36,1.36,0,0,0,.23-0.27c-0.15-.21-0.32-0.09-0.48,0l-31.16,13.29-23.43,10,0,0a3,3,0,0,1,1.66-1.26q26.84-16,53.7-31.95c0.42-.25.82-0.54,1.22-0.81a0.65,0.65,0,0,0,.55-0.36l0.28-.22c-0.16-.2-0.31-0.09-0.47,0l-0.59.25-44.1,19-1.89.81h0a4.51,4.51,0,0,1,1.85-1.29l50.7-29.21,1.26-.73-0.15-.34-42,17-0.1-.21c0.44-.23.88-0.47,1.33-0.69,3.42-1.63,6.83-3.29,10.27-4.87a55.09,55.09,0,0,0,8.43-4.84,103.09,103.09,0,0,1,41.32-17.39,83.26,83.26,0,0,1,13.67-1.37,1.77,1.77,0,0,1-.52,1.37c-4.22,7.35-8.46,14.68-12.68,22a5.27,5.27,0,0,1-2,2c-8.69,5-16.35,11.19-22,19.58a38.35,38.35,0,0,0-7,21.32c-0.22,16.87,13.45,35.69,32.87,38.32,11.21,1.52,21.49-1.26,31.31-6.39a59.21,59.21,0,0,0,6.67-4.09,2,2,0,0,1,1.89-.33q20.93,5.44,41.88,10.81a3.39,3.39,0,0,1,.49.23,21.23,21.23,0,0,1-1.64,4.82c-4.58,10.76-12,19.29-21.06,26.45a91.77,91.77,0,0,1-44,19,78.89,78.89,0,0,1-11.5.83,8.3,8.3,0,0,0-3.29.65q-13.26,5.58-26.56,11.08c-0.5.21-1,.38-1.51,0.56h0c2.85-2.17,5.94-4,8.93-5.95q28-18.21,55.93-36.39c0.4-.26.77-0.58,1.16-0.87l0.27-.21c-0.15-.19-0.31-0.09-0.46,0q-18.49,7.41-37,14.83l-48.73,19.6c-0.36.14-.72,0.25-1.23,0.43a3.33,3.33,0,0,1,1.51-1.24l66.39-42.67c0.33-.21.65-0.45,1-0.68,0.14-.13.44-0.1,0.4-0.48a0.57,0.57,0,0,0-.58.27" transform="translate(1194.02 646.91)"/></svg>