<svg xmlns="http://www.w3.org/2000/svg" viewBox="0 0 50 50">
  <path d="M19 2 A 1.0001 1.0001 0 0 0 18.269531 3.6835938L21.529297 7.1621094L18.15625 12.462891 A 1.0001 1.0001 0 0 0 18.248047 13.658203L26.123047 22.658203 A 1.0001 1.0001 0 0 0 26.875 23L41 23 A 1.0001 1.0001 0 0 0 42 22L42 16L45 16L45 29L47 29L47 16L48 16 A 1.0001 1.0001 0 0 0 48.707031 14.292969L36.707031 2.2929688 A 1.0001 1.0001 0 0 0 36 2L19 2 z M 21.308594 4L35.585938 4L45.585938 14L30.683594 14L21.308594 4 z M 22.941406 8.6679688L29.519531 15.683594 A 1.0001 1.0001 0 0 0 30.25 16L40 16L40 21L27.328125 21L20.246094 12.904297L22.941406 8.6679688 z M 6.625 13C5.178 13 4 14.183719 4 15.636719L4 40.363281C4 41.816281 5.178 43 6.625 43L19 43C19 44.612244 17.654903 46 16 46 A 1.0001 1.0001 0 0 0 16 48L30 48 A 1.0001 1.0001 0 0 0 30 46C28.345097 46 27 44.612244 27 43L39.375 43C40.822 43 42 41.816281 42 40.363281L42 25L40 25L40 35L6 35L6 15.636719C6 15.286719 6.28 15 6.625 15L16.666016 15C16.202016 14.422 15.987578 13.709 16.017578 13L6.625 13 z M 46 31C44.895 31 44 31.895 44 33C44 34.105 46 37 46 37C46 37 48 34.105 48 33C48 31.895 47.105 31 46 31 z M 6 37L40 37L40 40.363281C40 40.713281 39.72 41 39.375 41L6.625 41C6.28 41 6 40.713281 6 40.363281L6 37 z M 23 38 A 1 1 0 0 0 22 39 A 1 1 0 0 0 23 40 A 1 1 0 0 0 24 39 A 1 1 0 0 0 23 38 z M 21 43L25 43C25 44.137003 25.45659 45.150235 26.115234 46L19.884766 46C20.54341 45.150235 21 44.137003 21 43 z" fill="#FFFFFF" />
</svg>