<svg id="Capa_1" data-name="Capa 1" xmlns="http://www.w3.org/2000/svg" viewBox="0 0 620.41 74.4"><defs><style>.cls-1{fill:#0b6967;}</style></defs><title>logo-color</title><path class="cls-1" d="M3302.91-469.13c1.52-24.59,26.51-40.91,49.69-32.57a36.68,36.68,0,0,1,12.88,8,1,1,0,0,1,0,1.41l0,0L3353.17-480a1,1,0,0,1-1.3.1q-10.11-7.34-19.47-2.58c-22.76,11.57-3.11,45.4,19.54,28.79a1,1,0,0,1,1.3.1l12.4,12.4a1,1,0,0,1,0,1.41l0,0q-13.52,12.11-30.42,9.82A36.85,36.85,0,0,1,3302.91-469.13Z" transform="translate(-3302.83 503.9)"/><path class="cls-1" d="M3572.2-460.48q0.08-20.1.06-40.2a1,1,0,0,1,1-1l20,0a1,1,0,0,1,1,1q0.08,17.11,0,34.21,0,10.55-1.34,14.9a29.24,29.24,0,0,1-26,20.35c-6,.34-13.7.51-19.41-1.41-14.9-5-20.24-16.69-20.11-31.57q0.16-18.23,0-36.43a1,1,0,0,1,1-1h19.93a1,1,0,0,1,1,1c0.33,13.67.1,27.33,0.16,41q0,4.91,1.44,7.12c4,6.28,16.83,6,20.25-1.05Q3572.18-455.6,3572.2-460.48Z" transform="translate(-3302.83 503.9)"/><path class="cls-1" d="M3478.87-448.41h35.25a0.38,0.38,0,0,1,.38.38h0v16.75a0.38,0.38,0,0,1-.38.38l-57-.2a0.38,0.38,0,0,1-.38-0.38h0v-69.8a0.38,0.38,0,0,1,.38-0.38h21a0.38,0.38,0,0,1,.38.38h0l0,52.49a0.38,0.38,0,0,0,.38.38h0Z" transform="translate(-3302.83 503.9)"/><path class="cls-1" d="M3611-473.65c0.18-11.72,8.45-22.58,19.51-26.41q4.43-1.53,14.25-1.58,15.47-.07,30.95,0,9.8,0.05,14.21,1.58a29,29,0,0,1,18.34,19.42q1,3.54,1,11.56,0,18.46.12,36.91a1,1,0,0,1-1,1h-19.83a1,1,0,0,1-1-1v0q0.53-21.62-.09-43.06c-0.17-6.09-4.31-8.94-10.08-9.3q-2.58-.17-5.16-0.13a1,1,0,0,0-1,1v51.49a1,1,0,0,1-1,1l-20,.08a1,1,0,0,1-1-1h0v-51.56a1,1,0,0,0-1-1c-10.06-.28-15.24,1.55-15.26,12.52q0,20,0,40a1,1,0,0,1-1,1H3612a1,1,0,0,1-1-1Q3610.92-467.28,3611-473.65Z" transform="translate(-3302.83 503.9)"/><rect class="cls-1" x="509.42" y="2.24" width="24.48" height="70.62" rx="0.26" ry="0.26"/><path class="cls-1" d="M3923.21-470.52c-0.09-14.77-6-26.29-21.1-30.35-6.93-1.86-22.75-1.38-28.9.45-12.55,3.72-20.62,15.09-20.64,28.28,0,21.2-.06,34.61,0,40.06a1.07,1.07,0,0,0,1,1.08h20c0.55,0,.5-0.61.5-1.16v-8.5a1.87,1.87,0,0,1,1.5-1.34h25c0.55,0,.5.79,0.5,1.34v8.5a1.24,1.24,0,0,0,1.25,1h19.83a1.07,1.07,0,0,0,1.07-1C3923.22-444.95,3923.28-457.74,3923.21-470.52Zm-21.81,8.47a1.07,1.07,0,0,1-1,1.05h-24.77a1.07,1.07,0,0,1-1-1.05c-0.18-6.08-.2-10.68-0.07-13.73,0.38-8.76,9.68-8.76,15.93-8.79,6.75,0,10.43,3.29,11,9.93C3901.65-473.31,3901.61-469.1,3901.4-462.05Z" transform="translate(-3302.83 503.9)"/><path class="cls-1" d="M3412.76-503.34q-20.29-1.84-32.71,13-11.42,13.62-8.34,30.25c6.65,35.88,55.72,41.93,70.84,8.41C3452.59-474,3437.65-501.09,3412.76-503.34Zm12.91,40.21a17.59,17.59,0,0,1-17.22,14,17.59,17.59,0,0,1-17.22-14,17.66,17.66,0,0,1-.36-3.54h0a17.57,17.57,0,0,1,.79-5.23,17.51,17.51,0,0,1,2.21-4.6,17.68,17.68,0,0,1,2.15-2.6,17.53,17.53,0,0,1,12.43-5.15A17.58,17.58,0,0,1,3426-466.67,17.64,17.64,0,0,1,3425.67-463.13Z" transform="translate(-3302.83 503.9)"/><path class="cls-1" d="M3798.22-459.14a23.26,23.26,0,0,0-8.89-8.37,1,1,0,0,1-.34-0.33,1,1,0,0,1,.31-1.38,17.55,17.55,0,0,0,7.46-9c5.19-14.57-14.46-23.11-25.7-23.36q-14.94-.34-43.07-0.07a1,1,0,0,0-1,1v68.67a1,1,0,0,0,1,1q22.93-.18,45.84-0.27a42.1,42.1,0,0,0,10.18-.94C3795.59-435.34,3805-447.24,3798.22-459.14ZM3753-483.2a0.9,0.9,0,0,1,.81-1,52,52,0,0,1,11.49.3c3.29,0.57,5.39,2.26,6.34,5.09a1,1,0,0,1-.06.74,8.07,8.07,0,0,1-6.67,5,72.93,72.93,0,0,1-11.08.4,0.9,0.9,0,0,1-.84-1v-9.52Zm23.55,30.59a9.67,9.67,0,0,1-6.56,5.47c-1.67.41-7,.47-16.14,0.19a0.9,0.9,0,0,1-.85-1v-10.68a0.9,0.9,0,0,1,.85-1c4.31-.07,8.56-0.06,12.86,0,4.78,0.08,8.52,1.35,9.94,6.29A1,1,0,0,1,3776.55-452.61Z" transform="translate(-3302.83 503.9)"/></svg>