<svg id="Capa_1" data-name="Capa 1" xmlns="http://www.w3.org/2000/svg" viewBox="0 0 619.33 97.99"><defs><style>.cls-1{fill:#0b6967;}</style></defs><title>logo-h</title><path class="cls-1" d="M455.86-298.48l0.54,1.71-0.34,14.35a1,1,0,0,1-1,1h-0.1c-7.59-.9-20.33-2.86-27.28-0.05-5.15,2.08-8.51,12.29-8.78,17.49q-0.32,6.42-.14,14c0.26,10.78,1.06,28,16.64,27.18q14.3-.73,17.24-1.19,3.89-.59,3.7,3a87.69,87.69,0,0,0,.13,10.77,3.79,3.79,0,0,1-1.89,3.72,11.49,11.49,0,0,1-3.73,1.14c-12.41,2.23-27.33,2.89-38.3-4.57-16.91-11.5-15.71-28.67-15.44-47.12,0.23-15.26.53-26.19,11.71-35.86C420.68-303.25,442.25-303.93,455.86-298.48Z" transform="translate(-396.97 301.86)"/><path class="cls-1" d="M486.43-207.34c-10.54-4.09-18.5-17-20.31-26.95-1.72-9.5-1.61-25.38-.49-33.63,1.67-12.31,8.66-25.46,20.84-30.34,14.17-5.68,35.11-4.93,45.74,7.83q9.33,11.22,9.92,27.59c0.46,12.94,1.07,26.44-3.62,37.65C529.78-204.3,506.12-199.71,486.43-207.34Zm6.2-20.13q9.39,7.28,19.58,2.25c7-3.45,6.36-9.13,6.6-17.51q0.4-14.08-.43-28.15c-0.59-10.06-13.8-14.32-21.61-10.11-5.32,2.87-7.67,9-8.12,14.72a187.44,187.44,0,0,0-.24,24.44,31.63,31.63,0,0,0,4,14.06A0.94,0.94,0,0,0,492.63-227.47Z" transform="translate(-396.97 301.86)"/><path class="cls-1" d="M1014.91-213.58A404,404,0,0,1,1004.14-257q-2.87-14.27-7-28.23c-4.44-14.9-13.53-18.48-28.42-15.82-10.47,1.86-14.59,10-16.37,19.78-4.47,24.54-12,47-15.77,68.59q-0.57,3.24-.85,6.3s0,0.06,0,.09a1,1,0,0,0,1,1l19.4,0a1,1,0,0,0,1-.74l5.81-21.89a1,1,0,0,1,1-.74l24.57,0.5a1,1,0,0,1,1,.88c1,7.54,1.45,14.57,4.4,21.69a1,1,0,0,0,.94.61l20.56-.34h0.05a1,1,0,0,0,.93-1.07A31.53,31.53,0,0,0,1014.91-213.58ZM984-246.83a101.35,101.35,0,0,1-14.17.37q-2.51-.09-3.88-0.17a1,1,0,0,1-.28-0.06A1,1,0,0,1,965-248c3.1-8.59,10.3-35.24,10.5-35.35q1.46-.77,1.69,1s7.63,34.41,7.59,34.22a1,1,0,0,1,0,.19A1,1,0,0,1,984-246.83Z" transform="translate(-396.97 301.86)"/><path class="cls-1" d="M876.8-253.1q10.87,8.54,9.67,21.73c-0.8,8.74-3.42,16.5-11.14,21a38.81,38.81,0,0,1-14.56,5.23,126.06,126.06,0,0,1-39.88-.89c-3.42-.63-5.26-2.32-5.27-5.81q-0.07-41.23,0-82.46,0-4.85,4.35-5.53c16.26-2.55,37.08-3.47,52.07,2.55s16.16,24,10.6,37.06a7.85,7.85,0,0,1-3.22,4q-1.59.88-2.54,1.43a1,1,0,0,0-.36,1.37A1,1,0,0,0,876.8-253.1Zm-38.34-8.41c7.5-.1,20.75,2.5,25.44-5.43a10.38,10.38,0,0,0-3.1-14c-5.17-3.39-16.75-3.13-22.45-2.41a1,1,0,0,0-.88,1l0,19.9a1,1,0,0,0,1,1h0Zm1.07,38.9c8.76,1.14,28.35,1.79,26.2-12.9q-1.36-9.33-12.09-10.62a112.07,112.07,0,0,0-15-.05,1,1,0,0,0-1,1l-0.39,21.43a1,1,0,0,0,.91,1Q838.89-222.7,839.53-222.61Z" transform="translate(-396.97 301.86)"/><path class="cls-1" d="M582.91-204.3c-8.11-.49-19.95-4.45-22.82-13q-1.47-4.37-1.55-16-0.25-32.49-.14-65.88a1,1,0,0,1,1-1h0L578.61-300a1,1,0,0,1,1,1q0,33.8,0,67.76c0,8,5.05,8.52,11.88,8.51s13.41,0,20.11,0a1,1,0,0,1,1,1v13.48a2.45,2.45,0,0,1-2.38,2.65A128.53,128.53,0,0,1,582.91-204.3Z" transform="translate(-396.97 301.86)"/><path class="cls-1" d="M630.56-211.47c-6.1-4.81-11.15-17.1-11.17-24.86q-0.06-31.39,0-62.83a1,1,0,0,1,1-1l19.49-.15a1,1,0,0,1,1,1h0q0,31.12-.16,62.1,0,9.68,8,13.4c3.84,1.78,9.95,2.26,13.93.67,7.92-3.15,8.75-9.81,8.75-18.2q0-29.23.14-58a1,1,0,0,1,1-1h0l20.06,0.19a1,1,0,0,1,1,1q0.14,27,.21,54,0,12.81-1.32,17.62c-2.31,8.23-8.66,17.35-17.19,20.29C661.38-202.46,642.77-201.85,630.56-211.47Z" transform="translate(-396.97 301.86)"/><path class="cls-1" d="M776-259.62q-0.22-2.66-1.5-.31-6.13,11.26-13.22,22a1,1,0,0,1-.71.43c-1.12.15-9.56,0.12-12.39-.53a1,1,0,0,1-.58-0.38,131.07,131.07,0,0,1-13.49-22.93,2.77,2.77,0,0,0-.83-0.7,0.26,0.26,0,0,0-.31.2,0.28,0.28,0,0,0,0,.06l0.23,54q0,2.48-2.62,2.52l-18.67.31a1,1,0,0,1-1-1v0q0-44.69,0-90.51A3.1,3.1,0,0,1,714.1-300a127,127,0,0,1,17.47-.07,1,1,0,0,1,.85.58c4.68,10.1,10.73,19.65,15.51,29.86a76.56,76.56,0,0,0,5.58,9.91,1,1,0,0,0,1.4.28,1,1,0,0,0,.28-0.29A106.62,106.62,0,0,0,761-269.78c5.33-10.64,10.82-19.91,16.21-29.91a1,1,0,0,1,.88-0.52l16.75,0.07q2.84,0,2.83,3.23-0.06,34.39,0,69.83,0,13-.29,20.89a1,1,0,0,1-1,1l-19.07.19a1,1,0,0,1-1-.93c-1.08-15.56-.73-31.93-0.19-47.52A51.91,51.91,0,0,0,776-259.62Z" transform="translate(-396.97 301.86)"/><rect class="cls-1" x="504.44" y="1.65" width="21.72" height="94.92" rx="1.6" ry="1.6"/></svg>