<svg id="Capa_1" data-name="Capa 1" xmlns="http://www.w3.org/2000/svg" viewBox="0 0 19.19 16"><defs><style>.cls-1{fill:#fff;}</style></defs><title>mail</title><path class="cls-1" d="M73.42-354.86v7.94a3.2,3.2,0,0,0,.94,2.26,3.2,3.2,0,0,0,2.26.94h12.8a3.2,3.2,0,0,0,2.26-.94,3.2,3.2,0,0,0,.94-2.26v-9.6a3.2,3.2,0,0,0-.94-2.26,3.2,3.2,0,0,0-2.26-.94H76.62a3.2,3.2,0,0,0-2.26.94,3.2,3.2,0,0,0-.94,2.26v1.66Zm3.2-3.26h12.8a1.6,1.6,0,0,1,1.13.47,1.6,1.6,0,0,1,.47,1.13v1.18L83-351l-8-4.31v-1.18a1.6,1.6,0,0,1,.47-1.13,1.6,1.6,0,0,1,1.13-.47h0Zm-1.6,4.6,7.62,4.1a0.8,0.8,0,0,0,.38.1,0.8,0.8,0,0,0,.38-0.1l7.62-4.1v6.6a1.6,1.6,0,0,1-.47,1.13,1.6,1.6,0,0,1-1.13.47H76.62a1.6,1.6,0,0,1-1.13-.47,1.6,1.6,0,0,1-.47-1.13v-6.6Z" transform="translate(-73.42 359.72)"/></svg>