<svg id="Capa_1" data-name="Capa 1" xmlns="http://www.w3.org/2000/svg" viewBox="0 0 16 15.99"><defs><style>.cls-1{fill:#fff;}</style></defs><title>phone</title><path class="cls-1" d="M156.38-340.73h-0.1c-12.09-.7-13.8-10.89-14-14a1.85,1.85,0,0,1,.44-1.34,1.85,1.85,0,0,1,1.26-.64h3.39a1.23,1.23,0,0,1,.69.21,1.23,1.23,0,0,1,.45.56l0.94,2.3a1.23,1.23,0,0,1,.06.71,1.23,1.23,0,0,1-.33.62L147.82-351a5.76,5.76,0,0,0,1.59,3.07,5.76,5.76,0,0,0,3.07,1.6l1.33-1.32a1.23,1.23,0,0,1,.63-0.33,1.23,1.23,0,0,1,.71.07l2.32,0.93a1.23,1.23,0,0,1,.55.46,1.23,1.23,0,0,1,.2.69v3.25a1.85,1.85,0,0,1-.54,1.31,1.85,1.85,0,0,1-1.31.54h0Zm-12.3-14.76a0.62,0.62,0,0,0-.24,0,0.62,0.62,0,0,0-.2.13,0.62,0.62,0,0,0-.13.2,0.62,0.62,0,0,0,0,.24,0.47,0.47,0,0,0,0,.05c0.28,3.64,2.1,12.25,12.88,12.87a0.62,0.62,0,0,0,.44-0.15,0.61,0.61,0,0,0,.21-0.42v-3.29l-2.32-.93L152.91-345l-0.3,0c-5.35-.67-6.08-6-6.08-6.08l0-.3,1.75-1.77-0.92-2.32h-3.25Z" transform="translate(-142.23 356.72)"/></svg>