<svg width="24" height="26" viewBox="0 0 24 26" fill="none" xmlns="http://www.w3.org/2000/svg">
<path d="M10 1.04623e-05C9.83497 -0.000744335 9.67231 0.0393528 9.52654 0.116726C9.38077 0.1941 9.25641 0.306345 9.16456 0.443453C9.0727 0.58056 9.0162 0.738269 9.0001 0.902515C8.98399 1.06676 9.00879 1.23244 9.07227 1.38478L9.9707 3.63087L7.51367 2.15626C7.34279 2.05062 7.14406 1.9989 6.94336 2.00782C6.72771 2.0178 6.52108 2.09729 6.35434 2.23442C6.1876 2.37154 6.06971 2.55894 6.01828 2.76861C5.96685 2.97828 5.98465 3.19895 6.06901 3.39767C6.15337 3.59639 6.29977 3.76247 6.48633 3.8711L8.39062 5.01368H2C0.895 5.01368 0 5.90868 0 7.01368V9.01368H11V7.01368H11.7109C11.8017 7.03983 11.8958 7.05298 11.9902 7.05274C11.9915 7.05275 11.9928 7.05275 11.9941 7.05274C12.0945 7.0547 12.1946 7.04153 12.291 7.01368H13V9.01368H24V7.01368C24 5.90868 23.105 5.01368 22 5.01368H15.6094L17.5137 3.8711C17.7029 3.76142 17.8509 3.59274 17.9351 3.3909C18.0193 3.18905 18.0351 2.96516 17.9799 2.75353C17.9247 2.5419 17.8017 2.35419 17.6296 2.21915C17.4576 2.08412 17.246 2.0092 17.0273 2.00587C16.8363 2.0033 16.6486 2.05549 16.4863 2.15626L14.0293 3.63087L14.9277 1.38478C14.9919 1.23022 15.0162 1.06204 14.9985 0.895643C14.9808 0.729249 14.9216 0.569959 14.8263 0.432364C14.7311 0.294768 14.6029 0.183267 14.4534 0.108072C14.3039 0.032878 14.1379 -0.00360558 13.9707 0.00196359C13.7746 0.00884211 13.5849 0.0732458 13.4251 0.187156C13.2654 0.301066 13.1427 0.45945 13.0723 0.642589L12 3.32423L10.9277 0.642589C10.8558 0.454537 10.7287 0.292591 10.5632 0.177941C10.3976 0.0632909 10.2014 0.00127594 10 1.04623e-05ZM1 11.0137V23.0137C1 24.1187 1.895 25.0137 3 25.0137H11V11.0137H1ZM13 11.0137V25.0137H21C22.105 25.0137 23 24.1187 23 23.0137V11.0137H13Z" fill="#FF6700"/>
</svg>
