<svg width="604" height="362" viewBox="0 0 604 362" fill="none" xmlns="http://www.w3.org/2000/svg">
<path d="M602.9 333.028V332.968L602.866 332.867C598.791 321.151 594.944 309.362 590.896 297.639C585.983 283.43 582.082 259.865 562.646 260.415L539.737 260.957C539.473 260.964 539.214 260.883 539.002 260.727C538.79 260.57 538.635 260.347 538.564 260.093C538.495 259.84 538.511 259.572 538.61 259.329C538.71 259.086 538.887 258.884 539.114 258.752C544.974 255.388 550.226 251.06 554.65 245.951C574.14 223.364 577.102 191.467 572.21 163.183C567.317 134.9 549.281 112.232 520.789 105.53C512.041 103.428 503.078 102.351 494.08 102.319C481.742 102.435 469.495 104.445 457.767 108.278C445.75 112.085 435.649 119.611 427.828 130.55C426.642 132.21 425.839 134.112 425.475 136.119C425.417 136.383 425.27 136.62 425.06 136.79C424.588 137.175 424.14 137.589 423.719 138.029C423.579 138.175 423.403 138.282 423.21 138.341C423.016 138.399 422.811 138.408 422.613 138.365C422.415 138.323 422.232 138.232 422.079 138.099C421.927 137.967 421.811 137.797 421.742 137.607L421.702 137.5C421.611 137.244 421.611 136.965 421.702 136.709C422.21 135.216 422.461 133.648 422.446 132.071V129.276C422.446 122.4 420.133 116.475 415.931 112.199C414.084 110.331 411.919 108.808 409.537 107.701C409.345 107.609 409.182 107.467 409.064 107.29C408.946 107.113 408.878 106.908 408.867 106.696C408.854 106.483 408.898 106.27 408.996 106.08C409.094 105.89 409.242 105.73 409.423 105.617L409.497 105.57C409.643 105.478 409.807 105.419 409.979 105.397C410.15 105.375 410.324 105.39 410.489 105.443C411.102 105.64 411.726 105.801 412.358 105.925C415.233 106.463 418.148 106.759 421.072 106.81C424.713 106.945 428.36 106.761 431.97 106.26C439.121 105.255 444.704 102.909 448.725 98.948C450.626 97.0521 452.126 94.7933 453.136 92.306C454.144 89.6773 454.699 86.8966 454.778 84.0822V83.9683V83.8744C454.86 82.0178 454.768 80.1576 454.503 78.3182C453.977 74.6069 452.461 71.106 450.113 68.1842C450.008 68.0563 449.932 67.9079 449.888 67.7486C449.844 67.5894 449.834 67.4227 449.858 67.2593C449.965 66.5891 450.066 65.8585 450.2 64.9201V64.7995C450.2 64.7392 450.2 64.6789 450.2 64.5716C450.2 64.4644 450.2 64.4175 450.2 64.2968C450.326 62.9319 450.286 61.5568 450.079 60.2017C449.611 57.2608 448.266 54.5296 446.222 52.3643C444.177 50.1991 441.527 48.7003 438.618 48.0637C438.456 48.0261 438.304 47.9547 438.171 47.8542C438.038 47.7538 437.928 47.6265 437.848 47.4806C437.767 47.3344 437.718 47.1729 437.704 47.0066C437.691 46.8403 437.712 46.673 437.767 46.5155C438.105 45.5687 438.354 44.5927 438.511 43.5999L438.659 42.2594C438.827 39.6324 438.275 37.0093 437.063 34.6724C435.836 32.3236 434.018 30.3348 431.789 28.9016L430.783 28.3185L430.596 28.1979H430.535L430.415 28.1309C429.617 27.7288 428.679 27.2931 427.526 26.7904L427.405 26.7435C426.393 26.3146 425.435 25.9392 424.55 25.6175C421.111 24.3529 417.548 23.4543 413.92 22.9366C410.166 22.333 406.34 22.3127 402.58 22.8762C400.447 23.2319 398.374 23.8815 396.42 24.8065C396.228 24.8977 396.014 24.9353 395.801 24.9152C395.589 24.8952 395.386 24.8183 395.214 24.6926C392.943 23.0456 390.431 21.7592 387.768 20.8789H387.647H387.546L385.857 20.3561C383.554 19.7085 381.196 19.2754 378.813 19.0626C374.738 18.7307 370.636 19.0223 366.648 19.9272C365.369 20.2044 364.116 20.59 362.902 21.08C362.741 21.1453 362.567 21.1744 362.393 21.1651C362.219 21.1559 362.05 21.1085 361.896 21.0264C361.448 20.7797 360.987 20.556 360.516 20.3561C357.885 19.2793 355.165 18.4382 352.386 17.8428C349.533 17.2026 346.628 16.8191 343.706 16.6967C337.929 16.4621 332.694 17.3133 328.17 19.3776C327.988 19.4592 327.788 19.4934 327.588 19.477C327.389 19.4606 327.197 19.3941 327.031 19.2838C326.341 18.8283 325.615 18.4315 324.859 18.0974C322.904 17.2294 320.792 16.7731 318.653 16.757C314.591 16.6899 312.467 16.6632 308.345 16.6565C306.159 16.657 303.997 17.1136 301.997 17.9969C300.851 18.5101 299.774 19.1678 298.794 19.954C298.627 20.0872 298.428 20.173 298.217 20.2024C298.006 20.2319 297.791 20.204 297.594 20.1216C294.704 18.9701 291.672 18.2127 288.579 17.8696C285.202 17.4676 281.796 17.3533 278.398 17.5278C277.5 17.5747 275.047 17.7154 270.704 18.198L269.484 18.3723C268.688 18.5165 267.904 18.7204 267.138 18.9822C266.861 19.0773 266.558 19.0663 266.288 18.9512C266.018 18.836 265.801 18.625 265.677 18.3588L265.269 17.4674L264.759 16.3616L264.685 16.2074L264.571 15.9862C263.282 13.3447 261.26 11.1297 258.747 9.60557C256.045 7.98263 252.899 7.25542 249.759 7.52785C247.371 7.72326 245.06 8.47123 243.01 9.71278C239.659 11.7235 237.869 12.816 234.592 14.8535L234.438 14.9407L234.304 15.0345L234.203 15.1082L234.136 15.1618L233.305 15.7315C231.636 16.9917 230.251 18.5905 229.243 20.4232C228.8 21.218 228.432 22.0527 228.144 22.9164C228.051 23.1975 227.857 23.4337 227.599 23.5788C227.341 23.7239 227.038 23.7673 226.75 23.7006C223.464 22.9592 220.096 22.6439 216.73 22.7623C215.033 18.3414 212.468 14.3056 209.184 10.8934C205.901 7.48126 201.967 4.76204 197.615 2.8965C193.33 1.045 188.721 0.0614622 184.053 0.0027897C179.386 -0.0558828 174.753 0.811467 170.423 2.55467C166.084 4.27504 162.128 6.83909 158.786 10.0983C155.444 13.3576 152.782 17.2473 150.953 21.5425C148.252 27.7963 147.412 34.6965 148.534 41.4157C149.657 48.1348 152.693 54.3877 157.28 59.4242C157.278 61.0497 157.588 62.6604 158.192 64.1695C158.848 65.8113 159.842 67.2976 161.107 68.5327L161.06 68.5729C159.254 69.7161 157.83 71.3733 156.972 73.3316L150.028 89.5178C149.005 91.8919 148.839 94.5481 149.559 97.0312C149.559 97.0312 149.907 98.0834 149.914 98.0767C150.456 99.4419 151.262 100.687 152.285 101.74C153.309 102.794 154.53 103.635 155.879 104.216L156.134 104.317H156.194H156.228C157.58 104.884 159.031 105.176 160.497 105.175C162.69 105.176 164.834 104.533 166.665 103.328C168.496 102.122 169.933 100.406 170.799 98.3917L171.811 96.0258C171.896 95.8296 172.032 95.66 172.206 95.5349C172.379 95.4099 172.583 95.334 172.796 95.3154C173.01 95.2958 173.225 95.3347 173.419 95.428C173.613 95.5212 173.777 95.6653 173.895 95.8448C174.128 96.1934 174.376 96.5352 174.639 96.8703C176.068 98.6436 177.859 100.09 179.894 101.113C182.508 102.411 185.225 103.489 188.017 104.337L188.902 104.612C189.082 104.666 189.246 104.763 189.381 104.893C189.516 105.024 189.618 105.184 189.679 105.362C189.74 105.539 189.759 105.727 189.733 105.913C189.708 106.098 189.639 106.274 189.532 106.428L186.181 111.2L185.758 111.87L185.705 111.951L185.638 112.024C184.022 113.815 182.701 115.851 181.724 118.056C180.381 121.152 179.641 124.476 179.545 127.849V128.117L179.311 140.543C179.305 140.798 179.218 141.045 179.061 141.247C178.904 141.449 178.686 141.594 178.439 141.662C178.19 141.734 177.923 141.722 177.681 141.627C177.439 141.533 177.234 141.361 177.099 141.139C176.925 140.858 176.748 140.581 176.57 140.308C168.929 128.559 160.001 120.014 149.941 115.054C142.87 111.602 134.217 109.022 123.561 107.246C108.889 104.759 93.9629 104.766 79.1239 104.524C67.884 104.343 54.1375 103.981 45.7394 112.842C41.6577 117.152 39.4392 123.05 39.4392 129.859C39.4057 135.476 39.0907 141.086 39.0303 146.702C38.9298 155.911 39.2984 165.094 39.1376 174.309C39.0772 177.855 39.0907 181.407 39.0706 184.953C39.0699 185.142 39.0239 185.328 38.9364 185.496C38.849 185.664 38.7226 185.809 38.5679 185.918L36.5572 187.332C34.4874 188.786 32.7978 190.717 31.6313 192.961C30.4647 195.206 29.8554 197.698 29.8548 200.227C29.8577 203.134 30.665 205.982 32.1872 208.458C32.3016 208.644 32.3621 208.859 32.3621 209.078C32.3621 209.297 32.3016 209.511 32.1872 209.698C30.6618 212.175 29.8522 215.026 29.8481 217.935C29.8496 220.846 30.6569 223.699 32.1805 226.179C32.2949 226.366 32.3554 226.58 32.3554 226.799C32.3554 227.018 32.2949 227.232 32.1805 227.419C30.6586 229.895 29.8514 232.743 29.8481 235.649C29.8465 238.179 30.4548 240.672 31.6215 242.917C32.7883 245.162 34.479 247.092 36.5505 248.545L40.1965 251.105C40.3858 251.237 40.5325 251.421 40.6188 251.634C41.6937 254.343 43.2874 256.816 45.3104 258.913C45.471 259.079 45.5799 259.287 45.6239 259.513C45.668 259.739 45.6452 259.973 45.5584 260.187C45.4714 260.4 45.3244 260.583 45.1352 260.714C44.9459 260.845 44.7227 260.918 44.4927 260.924L37.9177 261.078C33.6194 261.121 29.4461 262.529 26.0009 265.1C22.6115 267.705 20.1491 271.33 18.9769 275.441C13.186 294.878 6.91262 314.235 0.981026 333.651C0.927407 333.839 0.853703 334.08 0.793381 334.322C0.308313 336.069 0.0426087 337.87 0.00246682 339.683C-0.0420314 342.328 0.516008 344.948 1.63429 347.345C2.75256 349.741 4.40174 351.852 6.45684 353.517C7.94203 354.722 9.60645 355.688 11.3898 356.379C13.8317 357.312 16.4302 357.767 19.0439 357.719L38.3333 357.538C43.2183 357.608 47.9559 355.865 51.6308 352.646C51.7477 352.541 51.8844 352.46 52.0328 352.408C52.1812 352.356 52.3384 352.335 52.4954 352.344C53.0602 352.376 53.6263 352.376 54.1911 352.344C54.3484 352.336 54.5059 352.358 54.6544 352.411C54.8028 352.464 54.9393 352.546 55.0557 352.652C58.8104 356.006 63.6953 357.814 68.7285 357.713H68.8558L88.2458 357.532C90.8081 357.543 93.349 357.065 95.7323 356.124C97.4833 355.425 99.1122 354.452 100.558 353.242L100.893 352.954C101.108 352.769 101.383 352.667 101.667 352.667C101.951 352.667 102.226 352.769 102.441 352.954C103.649 353.962 104.975 354.819 106.389 355.508C109.069 356.799 112.007 357.468 114.981 357.465L138.668 357.753H138.808C143.093 357.799 147.283 356.49 150.779 354.013C152.3 352.916 153.655 351.604 154.8 350.119C154.914 349.973 155.061 349.856 155.229 349.776C155.396 349.697 155.58 349.659 155.765 349.663C155.95 349.667 156.13 349.714 156.293 349.8C156.456 349.887 156.597 350.009 156.704 350.159C157.195 350.851 157.737 351.506 158.326 352.116C159.861 353.707 161.679 354.998 163.688 355.923C166.453 357.174 169.46 357.801 172.494 357.76L215.772 357.471C218.437 357.474 221.075 356.936 223.526 355.89C223.677 355.823 223.84 355.789 224.005 355.789C224.171 355.789 224.334 355.823 224.485 355.89C227.126 357.077 229.994 357.674 232.889 357.639H249.773C253.142 357.69 256.468 356.88 259.438 355.286C259.606 355.199 259.794 355.153 259.984 355.153C260.174 355.153 260.361 355.199 260.53 355.286C263.3 356.617 266.325 357.333 269.397 357.384L291.75 358.055H292.487C296.132 358.099 299.714 357.099 302.808 355.173C304.185 354.298 305.432 353.235 306.515 352.016C306.634 351.883 306.781 351.778 306.946 351.709C307.11 351.641 307.288 351.61 307.467 351.62C307.646 351.63 307.82 351.681 307.977 351.768C308.133 351.855 308.268 351.976 308.371 352.123L310.302 354.871C311.681 356.838 313.514 358.444 315.646 359.552C317.777 360.66 320.144 361.239 322.547 361.238C323.976 361.239 325.398 361.036 326.769 360.635C326.988 360.571 327.221 360.571 327.44 360.635C330.197 361.423 333.12 361.423 335.878 360.635C336.097 360.571 336.329 360.571 336.548 360.635C337.918 361.035 339.337 361.238 340.764 361.238C343.166 361.239 345.534 360.66 347.665 359.552C349.797 358.444 351.63 356.838 353.009 354.871L355.69 351.017L355.73 350.97C357.568 348.841 358.893 346.319 359.604 343.598C359.663 343.38 359.783 343.184 359.949 343.032C360.115 342.88 360.321 342.779 360.543 342.74C360.764 342.699 360.993 342.722 361.202 342.806C361.41 342.89 361.591 343.032 361.722 343.216C361.95 343.537 362.173 343.857 362.392 344.174C365.665 348.46 369.929 351.887 374.819 354.161C379.865 356.573 385.777 358.075 392.486 358.691L394.463 358.852C397.674 359.093 400.495 359.214 402.995 359.214C412.553 359.214 420.797 357.404 427.385 353.685C428.978 352.778 430.478 351.716 431.862 350.514C432.1 350.31 432.409 350.208 432.722 350.23C433.034 350.253 433.326 350.398 433.531 350.635L433.826 350.963C435.298 352.544 437.036 353.855 438.96 354.837C441.555 356.145 444.406 356.866 447.311 356.949L466.292 357.793C467.363 357.851 468.436 357.828 469.503 357.726C472.961 357.458 476.276 356.23 479.074 354.181C479.243 354.054 479.442 353.975 479.652 353.952C479.862 353.928 480.074 353.961 480.267 354.047L481.031 354.382C487.06 356.913 493.547 358.172 500.086 358.081C501.518 358.102 502.95 358.042 504.375 357.9C505.914 357.733 507.421 357.35 508.852 356.761C509.114 356.665 509.402 356.665 509.663 356.761C511.731 357.417 513.888 357.745 516.057 357.733H516.185L535.481 357.545C540.37 357.613 545.111 355.87 548.792 352.652C548.908 352.548 549.043 352.468 549.191 352.416C549.338 352.364 549.494 352.342 549.65 352.351C550.212 352.382 550.776 352.382 551.339 352.351C551.496 352.342 551.654 352.365 551.802 352.418C551.95 352.471 552.087 352.553 552.203 352.659C555.958 356.013 560.842 357.823 565.876 357.726H566.01L585.474 357.538C588.036 357.551 590.577 357.073 592.96 356.131C594.711 355.428 596.34 354.454 597.786 353.242C599.754 351.594 601.333 349.529 602.407 347.197C603.481 344.866 604.025 342.324 603.999 339.757C603.993 337.479 603.622 335.216 602.9 333.055" fill="#FFFDEE"/>
<path d="M359.571 293.725L358.9 278.537C358.915 277.834 358.788 277.135 358.527 276.482C358.265 275.829 357.875 275.236 357.379 274.737C356.848 274.278 356.228 273.932 355.559 273.72C354.889 273.508 354.184 273.434 353.485 273.504L310.771 274.549C309.356 274.523 307.982 275.03 306.924 275.97C305.964 276.961 305.436 278.291 305.456 279.67L304.645 293.437C304.541 294.141 304.584 294.859 304.773 295.545C304.961 296.232 305.289 296.872 305.737 297.425C306.239 297.928 306.839 298.323 307.499 298.585C308.16 298.846 308.868 298.969 309.578 298.946L318.499 299.228L317.641 338.43C317.578 340.217 318.005 341.546 318.921 342.418C319.052 342.543 319.19 342.659 319.337 342.766L322.245 346.895C322.322 347.007 322.425 347.098 322.546 347.162C322.666 347.225 322.8 347.258 322.936 347.258C323.072 347.258 323.205 347.225 323.326 347.162C323.446 347.098 323.549 347.007 323.626 346.895L325.831 343.725L329.182 343.691L331.428 346.875C331.505 346.987 331.608 347.078 331.728 347.141C331.848 347.205 331.982 347.238 332.118 347.238C332.254 347.238 332.388 347.205 332.508 347.141C332.628 347.078 332.731 346.987 332.808 346.875L335.06 343.637H338.318L340.61 346.888C340.688 346.999 340.791 347.089 340.911 347.151C341.031 347.214 341.165 347.246 341.3 347.246C341.435 347.246 341.569 347.214 341.689 347.151C341.809 347.089 341.912 346.999 341.99 346.888L344.879 342.739C345.102 342.589 345.311 342.419 345.502 342.23C345.977 341.717 346.337 341.108 346.558 340.445C346.779 339.781 346.855 339.078 346.783 338.383L346.112 298.993L354.37 299.087C355.084 299.163 355.807 299.082 356.488 298.851C357.168 298.619 357.79 298.242 358.311 297.746C358.788 297.206 359.149 296.573 359.369 295.887C359.59 295.2 359.665 294.476 359.591 293.758" fill="#1D9AA0"/>
<path d="M293.21 333.765L296.501 331.446V328.262L293.19 325.956C293.078 325.879 292.987 325.776 292.923 325.656C292.86 325.536 292.827 325.402 292.827 325.266C292.827 325.13 292.86 324.996 292.923 324.876C292.987 324.756 293.078 324.653 293.19 324.576L296.508 322.237V319.093L293.157 316.767C293.046 316.689 292.956 316.586 292.893 316.466C292.831 316.346 292.799 316.212 292.799 316.077C292.799 315.942 292.831 315.808 292.893 315.688C292.956 315.568 293.046 315.465 293.157 315.387L297.118 312.599L296.749 279.475C296.749 276.12 295.009 274.379 291.528 274.254L277.004 273.966C276.302 273.896 275.592 273.974 274.922 274.195C274.251 274.415 273.634 274.773 273.11 275.246C272.621 275.754 272.242 276.357 271.997 277.018C271.753 277.679 271.648 278.383 271.689 279.087L271.501 303.885L260.409 277.967C259.332 275.371 257.308 274.073 254.337 274.073L234.786 274.355C231.368 274.484 229.627 276.194 229.565 279.482L227.098 338.711C226.973 342.254 228.682 344.026 232.225 344.026H249.31C250.018 344.077 250.73 343.981 251.4 343.745C252.07 343.508 252.684 343.136 253.204 342.652C253.67 342.115 254.02 341.488 254.232 340.81C254.444 340.132 254.514 339.417 254.437 338.711L253.579 318.966L263.452 339.844C263.955 341.028 264.804 342.033 265.887 342.728C266.97 343.422 268.238 343.774 269.524 343.738L292.212 344.408C295.692 344.533 297.433 342.824 297.433 339.281V338.054L293.25 335.139C293.14 335.061 293.05 334.957 292.987 334.837C292.925 334.717 292.892 334.584 292.892 334.448C292.892 334.313 292.925 334.18 292.987 334.059C293.05 333.939 293.14 333.836 293.25 333.758" fill="#1D9AA0"/>
<path d="M220.095 338.236L219.05 326.085C218.732 322.729 216.865 321.116 213.446 321.246L197.595 321.815L197.314 316.976L211.456 316.306C214.744 316.118 216.454 314.347 216.583 310.991L216.677 305.77C216.74 302.419 215.062 300.647 211.643 300.455L194.841 299.698V294.765L213.607 295.147C214.306 295.217 215.012 295.144 215.681 294.932C216.351 294.72 216.97 294.373 217.501 293.913C217.998 293.415 218.388 292.821 218.649 292.168C218.911 291.515 219.038 290.816 219.023 290.113L219.405 279.959C219.53 276.541 217.852 274.769 214.371 274.644L173.748 273.692C173.046 273.623 172.337 273.701 171.666 273.922C170.996 274.142 170.379 274.5 169.854 274.973C169.36 275.482 168.972 276.085 168.711 276.745C168.45 277.405 168.321 278.11 168.333 278.82L167.663 297.921L170.772 300.086C170.884 300.163 170.976 300.266 171.039 300.387C171.103 300.507 171.136 300.641 171.136 300.777C171.136 300.913 171.103 301.046 171.039 301.167C170.976 301.287 170.884 301.39 170.772 301.467L167.482 303.786V306.97L170.793 309.275C170.903 309.353 170.994 309.457 171.056 309.577C171.118 309.697 171.151 309.83 171.151 309.966C171.151 310.101 171.118 310.234 171.056 310.354C170.994 310.475 170.903 310.578 170.793 310.656L167.475 312.995V316.138L170.826 318.464C170.938 318.541 171.03 318.644 171.093 318.765C171.156 318.885 171.189 319.019 171.189 319.155C171.189 319.29 171.156 319.424 171.093 319.545C171.03 319.665 170.938 319.768 170.826 319.845L166.751 322.714L166.168 338.632C166.038 342.175 167.748 343.947 171.295 343.947L215.142 343.658C216.849 343.658 218.129 343.185 218.983 342.237C219.43 341.684 219.759 341.044 219.947 340.358C220.135 339.672 220.178 338.954 220.075 338.25" fill="#1D9AA0"/>
<path d="M161.623 276.071C160.67 275.319 159.487 274.917 158.272 274.931L140.236 274.08C137.01 273.893 135.08 275.38 134.445 278.544L127.234 312.806L122.2 278.825C121.753 275.537 119.823 273.986 116.409 274.174L93.8223 275.695C92.6078 275.681 91.4249 276.083 90.4711 276.835C90.0746 277.192 89.7624 277.633 89.5572 278.126C89.352 278.618 89.259 279.15 89.2848 279.683C89.2873 280.398 89.4167 281.106 89.6668 281.775L89.8344 282.304L86.7111 286.439C86.6222 286.547 86.5617 286.675 86.535 286.812C86.5083 286.949 86.5163 287.091 86.5582 287.224C86.6002 287.357 86.6748 287.478 86.7752 287.575C86.8756 287.672 86.9987 287.743 87.1333 287.78L91.0207 288.98L91.9791 291.976L89.4993 295.166C89.4104 295.274 89.3498 295.402 89.3232 295.539C89.2965 295.676 89.3045 295.818 89.3464 295.951C89.3884 296.084 89.463 296.205 89.5634 296.302C89.6638 296.399 89.7869 296.469 89.9215 296.506L93.7754 297.693L94.7472 300.722L92.3143 303.919C92.2271 304.027 92.168 304.156 92.1422 304.292C92.1165 304.429 92.1248 304.57 92.1666 304.702C92.2084 304.835 92.2823 304.955 92.3817 305.052C92.4811 305.15 92.603 305.221 92.7365 305.26L97.5957 306.754L108.038 339.422C108.985 342.268 110.916 343.691 113.829 343.691L137.843 343.972C140.882 343.972 142.875 342.549 143.822 339.703L162.428 281.044C162.677 280.375 162.806 279.667 162.81 278.953C162.835 278.42 162.742 277.888 162.537 277.395C162.331 276.903 162.02 276.462 161.623 276.104" fill="#1D9AA0"/>
<path d="M507.552 322.578C506.509 321.635 505.201 321.038 503.806 320.869C502.242 320.646 500.711 320.232 499.248 319.635C498.087 319.192 497.012 318.55 496.071 317.739C495.374 317.147 494.752 316.472 494.221 315.728C493.959 315.372 493.735 314.99 493.551 314.589C494.524 314.365 495.476 314.063 496.4 313.684C498.359 312.997 500.238 312.098 502.003 311.003C503.647 310.063 504.996 308.681 505.897 307.015C507.436 303.889 508.216 300.445 508.176 296.961C508.256 291.881 506.907 286.881 504.282 282.531C501.685 278.295 497.762 275.764 492.512 274.937C491.406 274.763 490.287 274.609 489.161 274.462L486.326 270.44C486.248 270.329 486.145 270.239 486.024 270.177C485.904 270.115 485.771 270.082 485.636 270.082C485.5 270.082 485.367 270.115 485.247 270.177C485.127 270.239 485.023 270.329 484.945 270.44L482.62 273.791H482.063C481.17 273.733 480.276 273.684 479.382 273.644L477.15 270.474C477.072 270.363 476.969 270.273 476.849 270.21C476.729 270.148 476.595 270.116 476.46 270.116C476.325 270.116 476.191 270.148 476.071 270.21C475.951 270.273 475.848 270.363 475.77 270.474L473.652 273.523C472.468 273.523 471.295 273.541 470.133 273.577L467.968 270.5C467.89 270.39 467.787 270.3 467.667 270.237C467.546 270.175 467.413 270.142 467.278 270.142C467.142 270.142 467.009 270.175 466.889 270.237C466.769 270.3 466.665 270.39 466.587 270.5L464.255 273.852C459.721 274.158 455.211 274.745 450.75 275.608C447.711 276.18 446.13 278.047 446.005 281.211L444.295 337.779C444.225 338.478 444.298 339.183 444.51 339.853C444.722 340.523 445.069 341.142 445.529 341.673C446.027 342.169 446.621 342.56 447.274 342.821C447.927 343.082 448.626 343.209 449.329 343.194L468.598 344.045C472.141 344.238 473.913 342.528 473.913 338.918L474.007 331.137C474.007 331.324 474.545 332.021 475.622 333.228C477.088 334.768 478.71 336.152 480.461 337.356C482.976 339.113 485.673 340.593 488.504 341.773C492.803 343.554 497.424 344.426 502.076 344.334C502.996 344.35 503.915 344.319 504.831 344.24C506.668 344.11 507.68 342.401 507.867 339.112L508.625 326.298C508.687 324.653 508.323 323.42 507.532 322.598M477.372 303.523C476.216 303.937 474.993 304.13 473.766 304.093C473.025 304.143 472.282 304.045 471.581 303.804L471.393 292.987C471.52 292.987 471.849 292.987 472.392 292.94C472.935 292.893 473.612 292.893 474.402 292.893C478.768 292.893 480.951 294.727 480.951 298.396C480.951 301.179 479.749 302.888 477.345 303.523" fill="#1D9AA0"/>
<path d="M592.177 337.76L571.487 278.25C570.535 275.341 568.511 273.949 565.414 274.074L537.512 274.744C534.474 274.807 532.544 276.261 531.722 279.108L513.498 338.048C513.309 338.705 513.183 339.378 513.123 340.059C513.099 340.601 513.202 341.141 513.424 341.635C513.646 342.13 513.982 342.566 514.403 342.907C515.431 343.659 516.69 344.029 517.962 343.953L537.512 343.765C540.613 343.765 542.544 342.277 543.303 339.302L544.724 333.698L548.786 333.605V333.718L551.922 338.169C552.028 338.318 552.167 338.44 552.329 338.524C552.491 338.608 552.671 338.652 552.854 338.652C553.037 338.652 553.217 338.608 553.379 338.524C553.541 338.44 553.681 338.318 553.786 338.169L556.889 333.712V333.41L560.857 333.316L562.472 339.482C563.232 342.458 565.193 343.946 568.357 343.946L588.001 343.759C589.201 343.831 590.388 343.477 591.352 342.76C591.74 342.432 592.049 342.021 592.254 341.556C592.46 341.092 592.557 340.587 592.539 340.079C592.535 339.304 592.406 338.534 592.157 337.8M552.197 293.283L556.185 314.06L547.834 314.342L552.197 293.283Z" fill="#1D9AA0"/>
<path d="M434.745 279.295C434.757 278.614 434.627 277.938 434.366 277.31C434.104 276.681 433.715 276.114 433.224 275.642C432.134 274.739 430.743 274.282 429.33 274.362L425.583 274.322L422.52 269.979C422.415 269.829 422.275 269.707 422.113 269.623C421.951 269.539 421.771 269.495 421.588 269.495C421.406 269.495 421.226 269.539 421.064 269.623C420.902 269.707 420.762 269.829 420.657 269.979L417.694 274.235L411.575 274.168C410.191 274.076 408.827 274.537 407.782 275.448C407.312 275.946 406.95 276.536 406.72 277.181C406.489 277.826 406.394 278.511 406.441 279.194C406.441 283.752 406.504 289.384 406.629 296.091C406.691 298.053 406.723 300.077 406.723 302.163C406.723 308.49 404.699 311.654 400.65 311.654C399.868 311.709 399.084 311.573 398.365 311.259C397.646 310.945 397.013 310.462 396.522 309.851C395.62 308.69 395.032 307.317 394.813 305.863C394.589 304.407 394.415 302.572 394.29 300.361L394.196 297.009C394.196 294.48 394.227 292.425 394.29 290.843L394.384 279.261C394.434 278.553 394.338 277.841 394.102 277.171C393.866 276.501 393.494 275.887 393.01 275.367C392.489 274.907 391.878 274.559 391.216 274.347C390.553 274.134 389.854 274.062 389.162 274.134L384.109 274.221L381.093 269.938C380.988 269.789 380.848 269.667 380.686 269.583C380.524 269.499 380.344 269.455 380.161 269.455C379.979 269.455 379.798 269.499 379.636 269.583C379.474 269.667 379.335 269.789 379.23 269.938L376.16 274.349L372.554 274.409C371.846 274.369 371.138 274.47 370.469 274.706C369.801 274.942 369.186 275.308 368.66 275.783C367.714 276.691 367.167 277.937 367.138 279.248C366.634 287.666 366.381 294.659 366.381 300.226C366.329 306.696 366.678 313.163 367.427 319.59C368.231 325.552 370.622 331.188 374.35 335.91C378.242 341.071 384.996 344.091 394.611 344.971C398.28 345.289 401.408 345.447 403.995 345.447C411.336 345.447 417.221 344.198 421.649 341.701C426.077 339.203 429.301 334.853 431.32 328.651C434.041 320.55 435.402 309.509 435.402 295.528C435.402 290.783 435.179 285.372 434.732 279.295" fill="#1D9AA0"/>
<path d="M90.4574 337.76L69.7673 278.25C68.8155 275.341 66.7914 273.949 63.6949 274.074L35.793 274.744C32.7546 274.807 30.8243 276.261 30.0021 279.108L11.7516 338.048C11.5605 338.705 11.4325 339.378 11.3696 340.059C11.3457 340.601 11.449 341.141 11.6713 341.635C11.8936 342.13 12.2287 342.566 12.6498 342.907C13.6783 343.659 14.9369 344.029 16.2087 343.953L35.7595 343.765C38.8604 343.765 40.7907 342.277 41.5503 339.302L42.9712 333.698L47.0396 333.605V333.718L50.1763 338.169C50.2814 338.318 50.421 338.44 50.5831 338.524C50.7452 338.608 50.9252 338.652 51.1079 338.652C51.2905 338.652 51.4705 338.608 51.6327 338.524C51.7948 338.44 51.9343 338.318 52.0395 338.169L55.1427 333.712V333.41L59.1105 333.316L60.7258 339.482C61.4854 342.458 63.4469 343.946 66.6104 343.946L86.2551 343.759C87.4549 343.831 88.6417 343.477 89.6062 342.76C89.9942 342.432 90.3026 342.021 90.5081 341.556C90.7136 341.092 90.8109 340.587 90.7926 340.079C90.7891 339.304 90.6601 338.534 90.4105 337.8M50.4511 293.283L54.439 314.06L46.0878 314.342L50.4511 293.283Z" fill="#1D9AA0"/>
<path d="M226.04 34.772C226.431 34.9109 226.775 35.1567 227.034 35.4813C227.292 35.8059 227.454 36.1964 227.502 36.6085C227.556 37.039 227.526 37.4761 227.414 37.8954C226.811 40.3953 226.51 41.642 225.92 44.1486C225.849 44.6764 225.6 45.1639 225.213 45.5299C224.826 45.8958 224.326 46.118 223.795 46.1594C223.497 46.198 223.195 46.198 222.897 46.1594C221.796 46.0244 220.683 46.0131 219.579 46.1258C218.971 46.2098 218.372 46.3489 217.79 46.5414C217.414 46.6697 217.068 46.874 216.774 47.1414C216.48 47.4089 216.244 47.7339 216.081 48.0963C215.679 48.8738 215.527 49.7561 215.645 50.6231C215.722 51.2599 215.999 51.8559 216.436 52.3255C216.923 52.8258 217.561 53.151 218.252 53.2505C219.652 53.4617 221.075 53.4617 222.475 53.2505L224.311 52.9757C224.907 52.8505 225.527 52.9316 226.07 53.2057C226.613 53.4797 227.047 53.9304 227.3 54.4837C228.534 56.8228 229.144 57.989 230.363 60.3349C230.585 60.7281 230.728 61.1605 230.786 61.6083C230.838 62.0148 230.777 62.4279 230.609 62.8017C230.441 63.1756 230.173 63.4956 229.834 63.7263C228.717 64.53 227.492 65.1709 226.195 65.6297C223.98 66.4637 221.681 67.0504 219.338 67.379C214.821 67.9823 210.846 67.379 207.381 65.6163C203.916 63.8536 201.496 60.6834 200.149 56.1526C199.841 55.1369 199.597 54.1026 199.419 53.0561C198.887 49.9972 199.096 46.8554 200.029 43.8939C200.87 41.1727 202.445 38.7356 204.579 36.8498C206.649 35.0244 209.216 33.8576 211.952 33.4986C217.481 32.7413 222.186 33.1769 226.027 34.7653" fill="#FF6700"/>
<path d="M253.526 29.6517C255.554 29.9127 257.504 30.5978 259.25 31.6624C263.131 34.2898 265.249 38.8273 265.664 45.2213C266.019 50.6234 264.934 54.9465 262.474 58.2105C260.014 61.4746 255.912 63.3244 250.135 63.8405C243.875 64.3968 239.357 63.3177 236.536 60.4893C233.632 57.5326 231.854 53.6537 231.509 49.5242C231.282 47.4841 231.282 45.4251 231.509 43.3849C231.677 41.5067 232.129 39.6649 232.849 37.9225C233.424 36.4953 234.275 35.1953 235.352 34.0971C236.43 32.9988 237.714 32.1237 239.13 31.5217C241.746 30.4091 244.517 29.7017 247.347 29.4239C249.405 29.2494 251.476 29.3123 253.519 29.6115M240.423 23.3783C240.05 23.608 239.741 23.9285 239.525 24.31C239.322 24.6705 239.236 25.0848 239.277 25.4963C239.307 25.7573 239.382 26.0113 239.498 26.247L240.209 27.5874C240.423 28.0239 240.761 28.3876 241.18 28.633C241.588 28.861 242.056 28.957 242.521 28.9078C242.76 28.8767 242.995 28.8252 243.225 28.7536C246.965 27.4132 248.835 26.7429 252.608 25.4024C253.147 25.2677 253.622 24.9473 253.948 24.4976C254.246 24.0866 254.387 23.5824 254.344 23.0767C254.322 22.7828 254.249 22.4948 254.129 22.2255L252.789 19.2832C252.559 18.7764 252.187 18.3477 251.717 18.0499C251.27 17.7812 250.748 17.6637 250.229 17.7148C249.754 17.7483 249.294 17.8954 248.888 18.1438C245.463 20.2014 243.761 21.2403 240.383 23.3381M244.538 43.0498C243.897 43.8978 243.617 44.9653 243.761 46.0189C243.822 47.208 244.296 48.3385 245.101 49.2159C245.471 49.5998 245.925 49.8914 246.428 50.0672C246.931 50.243 247.469 50.2981 247.997 50.228C248.223 50.2158 248.447 50.1822 248.667 50.1275C249.765 49.964 250.774 49.4266 251.522 48.606C252.201 47.6301 252.468 46.4263 252.266 45.2548C252.179 44.2985 251.815 43.3881 251.221 42.6342C250.604 41.8232 249.357 41.4948 247.487 41.6624C246.931 41.6759 246.384 41.8065 245.882 42.0455C245.379 42.2846 244.933 42.6267 244.572 43.0498" fill="#FF6700"/>
<path d="M286.777 28.21C288.809 28.4157 290.803 28.903 292.702 29.6577C294.97 30.7525 296.895 32.4497 298.265 34.5639C299.954 36.9499 300.818 40.2743 300.885 44.5437C300.909 45.3752 300.891 46.2073 300.832 47.0369C300.581 50.5177 299.726 53.2769 298.265 55.3144C297.062 57.1321 295.412 58.6094 293.472 59.6039C291.981 60.3438 290.378 60.8308 288.727 61.0449C287.192 61.2058 285.47 61.3465 283.593 61.4202C279.98 61.5677 276.468 61.4671 273.231 61.3331C272.897 61.3565 272.562 61.3084 272.248 61.1922C271.934 61.076 271.648 60.8942 271.41 60.659C271.171 60.4238 270.986 60.1405 270.865 59.828C270.745 59.5155 270.692 59.1809 270.711 58.8465C270.128 47.7943 269.84 42.2716 269.257 31.2194C269.163 29.6175 269.927 28.7127 271.629 28.5385C275.155 28.1698 277.521 28.0023 278.667 27.9553C281.368 27.8122 284.077 27.8997 286.763 28.2168M282.072 48.9136C282.613 48.9265 283.154 48.9108 283.694 48.8667C284.413 48.8309 285.124 48.7048 285.812 48.4914C286.158 48.3808 286.474 48.1913 286.734 47.9377C286.995 47.6841 287.193 47.3735 287.313 47.0302C287.607 46.2912 287.746 45.4996 287.722 44.7045C287.704 43.9346 287.526 43.1768 287.199 42.4794C286.952 41.8895 286.512 41.4006 285.952 41.092C285.469 40.8577 284.946 40.7168 284.411 40.6764C283.896 40.6248 283.379 40.6069 282.863 40.6228L281.998 40.6563C281.998 43.9606 282.038 45.6094 282.072 48.9136Z" fill="#FF6700"/>
<path d="M318.539 27.1793C319.251 27.1438 319.95 27.3838 320.49 27.8495C320.727 28.0909 320.909 28.3804 321.025 28.6984C321.14 29.0163 321.186 29.3554 321.16 29.6926C321.16 41.0867 321.16 46.7837 321.12 58.171C321.144 58.5162 321.097 58.8627 320.981 59.189C320.866 59.5152 320.685 59.8143 320.449 60.0677C320.189 60.2872 319.886 60.451 319.56 60.549C319.234 60.647 318.891 60.6771 318.553 60.6375C314.29 60.4967 312.159 60.4431 307.896 60.3626C307.217 60.3818 306.555 60.1422 306.046 59.6924C305.815 59.4506 305.639 59.1622 305.529 58.8466C305.42 58.5309 305.379 58.1955 305.409 57.8627C305.523 46.5424 305.59 40.8789 305.724 29.5586C305.715 29.2216 305.774 28.8861 305.899 28.5727C306.023 28.2593 306.21 27.9745 306.448 27.7356C306.979 27.2734 307.668 27.0334 308.372 27.0653C312.433 27.0653 314.464 27.0653 318.533 27.1659" fill="#FF6700"/>
<path d="M357.681 32.2264C357.653 32.4843 357.606 32.7397 357.54 32.9905C356.836 35.5642 356.481 36.8511 355.784 39.4248C355.426 40.7384 354.653 41.3595 353.465 41.288C353.166 41.2647 352.871 41.2039 352.587 41.1071C350.001 40.2988 347.332 39.7883 344.631 39.5856C342.694 39.5052 341.28 39.78 340.509 40.4167C339.76 41.0077 339.143 41.7499 338.7 42.595C338.308 43.3066 338.079 44.0964 338.029 44.9073C337.992 45.6426 338.125 46.3765 338.418 47.052C338.67 47.6526 339.066 48.182 339.571 48.5936C340.237 49.1556 341.073 49.4767 341.943 49.5051C342.344 49.5255 342.744 49.4803 343.13 49.3711C343.429 49.2876 343.721 49.1777 344.001 49.0426L344.43 48.8349L344.645 46.0333C344.747 44.4336 345.641 43.6428 347.326 43.6607C349.919 43.7478 351.22 43.7947 353.813 43.9086C354.156 43.8922 354.498 43.9475 354.817 44.071C355.137 44.1945 355.427 44.3835 355.67 44.6258C356.113 45.1466 356.332 45.821 356.28 46.5024C356.139 50.1485 356.065 51.9649 355.918 55.611C355.924 56.1864 355.82 56.7576 355.61 57.2933C355.385 57.7852 355.036 58.2102 354.598 58.5265C352.953 59.6968 351.109 60.5576 349.155 61.0667C346.242 61.7993 343.224 62.026 340.234 61.7369C337.93 61.5673 335.667 61.031 333.532 60.1484C331.22 59.205 329.176 57.7065 327.58 55.7852C325.799 53.584 324.737 50.8888 324.537 48.0641C324.425 46.9329 324.38 45.7959 324.403 44.6593C324.399 41.5017 325.1 38.3831 326.454 35.5307C327.714 32.8901 329.757 30.702 332.305 29.264C335.181 27.642 338.927 26.9114 343.438 27.0991C345.629 27.1921 347.807 27.4815 349.946 27.9637C352.007 28.4032 354.025 29.0222 355.978 29.8136C356.487 29.9704 356.928 30.2936 357.23 30.7312C357.533 31.1688 357.68 31.6954 357.647 32.2264" fill="#FF6700"/>
<path d="M384.323 30.6982C386.276 31.3213 388.076 32.3489 389.605 33.7143C392.956 36.985 394.256 41.8175 393.546 48.1847C392.942 53.5466 391.119 57.6283 388.117 60.4098C385.114 63.1913 380.744 64.2905 374.98 63.761C368.72 63.2114 364.464 61.3615 362.179 58.0975C359.841 54.6771 358.771 50.5472 359.156 46.422C359.296 44.3771 359.663 42.3541 360.248 40.3899C360.742 38.5684 361.511 36.8327 362.527 35.2424C363.343 33.9375 364.408 32.8064 365.662 31.9139C366.915 31.0214 368.333 30.3851 369.833 30.0414C372.602 29.4056 375.452 29.1954 378.284 29.4181C380.337 29.6083 382.361 30.0334 384.316 30.6849M373.15 42.3871C372.371 43.1081 371.909 44.108 371.864 45.1686C371.721 46.3388 371.986 47.5225 372.614 48.5198C372.912 48.9631 373.309 49.33 373.775 49.5908C374.241 49.8517 374.762 49.9991 375.295 50.0211C375.518 50.0425 375.742 50.0425 375.965 50.0211C377.075 50.0526 378.162 49.6999 379.042 49.0225C379.886 48.1874 380.368 47.0532 380.382 45.8657C380.464 44.9095 380.266 43.9501 379.813 43.1043C379.343 42.1995 378.177 41.6566 376.307 41.4958C375.758 41.4117 375.197 41.4439 374.662 41.5906C374.126 41.7372 373.627 41.9949 373.197 42.3469" fill="#FF6700"/>
<path d="M423.598 36.3484C424.492 36.7282 425.191 37.0477 425.696 37.3069C426.826 37.9101 427.311 38.7188 427.15 39.7331C427.094 40.0661 426.995 40.3905 426.855 40.6982C426.018 42.3872 425.595 43.2317 424.764 44.914C424.246 45.9953 423.507 46.4645 422.546 46.3215C422.302 46.2808 422.064 46.2134 421.835 46.1204C421.581 46.0199 421.406 45.9462 421.319 45.906C420.417 45.4851 419.493 45.1115 418.551 44.7867C417.785 44.4966 416.996 44.2723 416.192 44.1164C415.039 43.9511 414.396 44.3488 414.262 45.3095C414.235 45.4796 414.253 45.6537 414.314 45.8147C414.376 45.9757 414.477 46.1181 414.61 46.2277C415.022 46.5554 415.472 46.8322 415.951 47.0521C416.42 47.2934 416.996 47.5682 417.687 47.8497C419.221 48.4798 420.705 49.2283 422.124 50.0883C423.372 50.8908 424.391 52.004 425.079 53.3188C425.882 54.9277 426.118 56.7601 425.75 58.5198C425.557 59.5697 425.267 60.5996 424.885 61.5962C423.857 64.3442 422.419 66.2164 420.569 67.2128C418.276 68.4527 414.952 68.7476 410.555 68.1377C407.769 67.743 405.019 67.1244 402.332 66.2879C400.253 65.6957 398.221 64.9497 396.253 64.056C395.781 63.8506 395.36 63.544 395.019 63.1579C394.865 62.9486 394.755 62.7095 394.697 62.4557C394.64 62.2019 394.635 61.9389 394.684 61.6833C394.709 61.3788 394.774 61.079 394.879 60.7919C395.763 58.3925 396.219 57.1927 397.11 54.7933C397.593 53.6003 398.357 53.0663 399.403 53.1914C399.778 53.2574 400.142 53.3794 400.482 53.5534C400.602 53.6003 401.192 53.8751 402.251 54.3845C403.243 54.87 404.269 55.2822 405.321 55.6177C405.49 55.6804 405.662 55.734 405.837 55.7786C406.065 55.8389 406.319 55.9193 406.581 55.9662C406.822 56.0289 407.074 56.0374 407.318 55.991C407.563 55.9447 407.794 55.8447 407.995 55.6981C408.295 55.4347 408.486 55.0692 408.531 54.6727C408.548 54.3537 408.469 54.037 408.306 53.7627C408.142 53.4883 407.901 53.2685 407.613 53.1311C406.932 52.7617 406.218 52.4544 405.482 52.2129C403.981 51.6855 402.522 51.0447 401.118 50.296C399.874 49.5947 398.815 48.6067 398.029 47.414C397.132 45.9807 396.794 44.2682 397.077 42.6017C397.152 41.9056 397.296 41.2187 397.506 40.5508C398.719 36.3685 401.387 33.902 405.549 33.1782C408.074 32.8402 410.636 32.8831 413.149 33.3055C415.918 33.7049 418.636 34.3968 421.259 35.3699C421.961 35.6246 422.758 35.9418 423.652 36.3216" fill="#FF6700"/>
<path d="M212.032 60.8791C212.89 61.2321 213.56 61.5315 214.043 61.7772C215.138 62.3402 215.625 63.1311 215.504 64.1499C215.459 64.4831 215.374 64.8096 215.249 65.1218C214.485 66.8376 214.103 67.6954 213.332 69.4112C212.854 70.5104 212.142 70.9997 211.194 70.8791C210.965 70.8431 210.74 70.7825 210.524 70.6981C210.269 70.6043 210.102 70.5372 210.015 70.497C209.282 70.1574 208.373 69.8022 207.287 69.4314C206.536 69.1437 205.763 68.9195 204.975 68.7611C203.844 68.6092 203.214 69.0113 203.084 69.9675C203.057 70.1371 203.074 70.3109 203.134 70.4718C203.194 70.6328 203.295 70.7754 203.426 70.8858C203.823 71.21 204.257 71.4846 204.72 71.7035C205.182 71.9381 205.759 72.2061 206.442 72.4809C207.966 73.0916 209.445 73.8106 210.866 74.6324C212.126 75.4061 213.169 76.4879 213.895 77.7758C214.751 79.3562 215.054 81.1779 214.753 82.95C214.602 84.0081 214.351 85.0494 214.003 86.0599C213.064 88.8392 211.655 90.7516 209.773 91.7971C207.441 93.0907 203.976 93.4459 199.391 92.8159C196.485 92.3989 193.621 91.7261 190.833 90.8052C188.684 90.1615 186.59 89.3456 184.573 88.3655C184.097 88.1477 183.674 87.8299 183.333 87.4339C183.181 87.2199 183.076 86.9757 183.026 86.7178C182.977 86.46 182.983 86.1945 183.044 85.9393C183.082 85.6372 183.161 85.3417 183.279 85.0613C184.284 82.702 184.787 81.5224 185.779 79.1632C186.311 77.9925 187.102 77.4876 188.152 77.6485C188.529 77.7262 188.893 77.8594 189.231 78.0439C189.351 78.093 189.939 78.3879 190.993 78.9286C191.984 79.4425 193.012 79.8794 194.07 80.2356C194.241 80.3003 194.416 80.3562 194.593 80.4031C194.821 80.4701 195.082 80.5506 195.343 80.6042C195.586 80.6705 195.841 80.6821 196.089 80.638C196.337 80.594 196.572 80.4954 196.778 80.3495C197.082 80.0907 197.278 79.7271 197.327 79.3307C197.345 79.0116 197.268 78.6943 197.105 78.4189C196.943 78.1434 196.703 77.922 196.416 77.7825C195.734 77.4042 195.021 77.0857 194.284 76.8308C192.791 76.28 191.345 75.6075 189.961 74.82C188.739 74.0836 187.715 73.0598 186.979 71.8375C186.144 70.3683 185.88 68.6435 186.235 66.9917C186.341 66.3069 186.511 65.6337 186.744 64.981C188.085 60.8523 190.766 58.4931 194.787 57.8631C197.202 57.5682 199.648 57.6292 202.046 58.0441C204.685 58.4386 207.278 59.0965 209.787 60.0078C210.462 60.2491 211.228 60.5462 212.086 60.8992" fill="#1D9AA0"/>
<path d="M244.505 63.7478C246.163 63.9533 246.896 64.8648 246.704 66.4824L246.121 71.3014C246.1 71.6378 246.011 71.9666 245.859 72.2674C245.707 72.5682 245.495 72.8348 245.236 73.0507C244.958 73.2488 244.644 73.3889 244.311 73.4626C243.978 73.5363 243.634 73.5421 243.299 73.4796C239.666 73.0909 237.85 72.8898 234.217 72.4608L233.989 74.8067C237.233 75.2691 238.862 75.4769 242.112 75.926C243.766 76.1628 244.51 77.0765 244.344 78.6672L244.09 81.1471C243.893 82.7378 242.984 83.5086 241.362 83.4594C238.58 83.3455 237.186 83.2785 234.398 83.1377C234.398 84.0627 234.351 84.5251 234.318 85.45C237.441 85.6444 239.009 85.7315 242.133 85.8924C243.817 85.9773 244.671 86.824 244.693 88.4326C244.693 90.765 244.693 91.9312 244.726 94.2636C244.753 94.603 244.707 94.9441 244.592 95.2643C244.476 95.5844 244.293 95.8762 244.056 96.1202C243.782 96.339 243.465 96.4979 243.126 96.5868C242.786 96.6757 242.432 96.6925 242.086 96.6363C233.373 95.966 228.976 95.5371 220.249 94.6256C218.489 94.429 217.736 93.4907 217.991 91.8106C219.733 80.5104 220.591 74.8536 222.307 63.5467C222.34 63.2092 222.439 62.8815 222.599 62.5824C222.759 62.2834 222.976 62.0189 223.239 61.8041C223.514 61.6077 223.827 61.4706 224.158 61.4014C224.489 61.3322 224.831 61.3324 225.162 61.402C232.897 62.4408 236.771 62.91 244.532 63.7612" fill="#1D9AA0"/>
<path d="M277.165 68.0773C277.517 68.2856 277.806 68.5861 277.999 68.9464C278.193 69.3067 278.285 69.713 278.265 70.1215C278.251 70.5555 278.155 70.983 277.983 71.3816C277.018 73.7542 276.529 74.9406 275.55 77.3065C275.397 77.8087 275.075 78.2427 274.639 78.5357C274.204 78.8286 273.68 78.9626 273.157 78.915C272.862 78.9089 272.569 78.8639 272.286 78.781C271.242 78.4575 270.165 78.2485 269.076 78.1577C268.471 78.1302 267.865 78.1572 267.266 78.2381C266.876 78.295 266.501 78.4315 266.166 78.639C265.83 78.8465 265.541 79.1207 265.315 79.4446C264.775 80.133 264.457 80.97 264.404 81.844C264.357 82.4839 264.514 83.1222 264.853 83.667C265.235 84.252 265.801 84.693 266.462 84.9204C267.801 85.3904 269.205 85.6505 270.624 85.6912L272.494 85.738C273.1 85.7283 273.693 85.9206 274.178 86.2846C274.664 86.6486 275.014 87.1637 275.175 87.7487C276.013 90.2554 276.435 91.5088 277.286 94.0155C277.451 94.4425 277.528 94.8984 277.514 95.356C277.496 95.7725 277.361 96.1756 277.124 96.5184C276.887 96.8613 276.557 97.1298 276.173 97.2929C274.9 97.9028 273.546 98.3271 272.152 98.553C269.721 98.9943 267.247 99.1518 264.779 99.0221C260.041 98.7473 256.106 97.3332 253.017 94.8198C249.927 92.3064 248.271 88.6804 248.023 83.9552C247.956 82.8951 247.956 81.8317 248.023 80.7716C248.229 77.6796 249.147 74.677 250.704 71.9982C252.094 69.5677 254.098 67.5452 256.515 66.1336C258.802 64.8018 261.435 64.1855 264.076 64.3642C269.377 64.6927 273.693 65.9192 277.071 68.1041" fill="#1D9AA0"/>
<path d="M304.96 66.8097C306.115 66.9602 307.221 67.3685 308.197 68.0043C309.173 68.64 309.993 69.487 310.597 70.4826C311.854 72.5606 312.5 74.9509 312.46 77.3793C312.479 79.0479 312.095 80.6963 311.341 82.1849C310.895 82.9837 310.233 83.641 309.431 84.0817C308.562 84.6059 307.638 85.033 306.676 85.3551C306.222 85.5319 305.753 85.6709 305.275 85.7707C305.363 85.9647 305.471 86.1489 305.597 86.3203C305.858 86.6757 306.162 86.9977 306.502 87.2787C306.968 87.6661 307.493 87.9761 308.057 88.1969C308.78 88.4769 309.53 88.6791 310.296 88.8001C310.982 88.8776 311.629 89.1655 312.145 89.6245C312.353 89.8656 312.509 90.1477 312.601 90.4524C312.693 90.7572 312.721 91.0779 312.682 91.3939C312.527 93.8403 312.454 95.0668 312.293 97.5132C312.199 99.0882 311.663 99.8791 310.771 99.9596C310.523 99.9596 310.061 99.9998 309.397 99.9998C307.08 100.03 304.779 99.5927 302.635 98.7129C301.232 98.1336 299.895 97.4056 298.647 96.5414C297.79 95.9559 296.997 95.2819 296.281 94.5307C295.968 94.238 295.706 93.8961 295.503 93.5186L295.376 97.2384C295.34 98.9631 294.447 99.7585 292.695 99.6244C288.848 99.363 286.931 99.2223 283.091 98.9207C282.387 98.9106 281.715 98.6242 281.221 98.1231C281.003 97.8651 280.842 97.5639 280.748 97.2394C280.655 96.9148 280.631 96.5742 280.678 96.2398C281.449 85.449 281.824 80.0536 282.568 69.2628C282.559 68.6093 282.801 67.9774 283.243 67.4964C283.686 67.0154 284.295 66.7218 284.947 66.6757C288.633 66.1204 292.361 65.896 296.087 66.0054C299.074 66.0639 302.053 66.3394 305.001 66.8298M295.175 75.2614H294.692C294.692 77.3324 294.692 78.3645 294.692 80.4289C295.032 80.5511 295.391 80.6057 295.751 80.5897C296.351 80.6216 296.951 80.5421 297.521 80.3552C298.068 80.2493 298.555 79.9435 298.889 79.4973C299.222 79.0511 299.377 78.4967 299.324 77.9423C299.355 76.1908 298.312 75.2971 296.194 75.2614C295.796 75.2614 295.465 75.2614 295.202 75.2614" fill="#1D9AA0"/>
<path d="M340.026 66.2938C341.697 66.2938 342.531 67.1114 342.526 68.7468C342.526 70.6905 342.526 71.6623 342.526 73.606C342.545 73.9416 342.495 74.2776 342.38 74.5933C342.265 74.909 342.086 75.198 341.856 75.4425C341.606 75.6747 341.311 75.8539 340.989 75.9691C340.668 76.0843 340.327 76.1331 339.986 76.1127C336.333 76.1596 334.51 76.173 330.857 76.173C330.857 77.1181 330.857 77.5872 330.904 78.5322C334.182 78.606 335.817 78.6395 339.094 78.6797C340.761 78.7199 341.606 79.5398 341.628 81.1395C341.628 82.1381 341.628 82.6341 341.668 83.6328C341.668 85.2369 340.857 86.1104 339.235 86.2534C336.46 86.4679 335.066 86.5684 332.292 86.7561L332.486 89.0617C335.609 88.8807 337.178 88.7869 340.294 88.5791C341.979 88.4674 342.926 89.2069 343.136 90.7976C343.424 93.1099 343.572 94.2694 343.86 96.5817C343.923 96.9177 343.913 97.2634 343.831 97.5952C343.749 97.9271 343.596 98.2375 343.384 98.5053C343.138 98.7552 342.841 98.9505 342.515 99.0787C342.188 99.2068 341.838 99.265 341.487 99.2493C332.734 99.5911 328.351 99.7117 319.591 99.8257C317.803 99.8257 316.945 98.9834 317.017 97.2989C317.406 85.8713 317.593 80.1543 317.955 68.7267C317.947 68.3874 318.007 68.0498 318.13 67.7335C318.253 67.4172 318.437 67.1283 318.672 66.8836C318.923 66.6562 319.218 66.4833 319.538 66.376C319.859 66.2687 320.199 66.2293 320.536 66.2602C328.33 66.3742 332.231 66.3876 340.026 66.3139" fill="#1D9AA0"/>
<path d="M370.234 64.7794C370.487 64.9995 370.694 65.2684 370.842 65.5701C370.989 65.8718 371.074 66.2001 371.092 66.5354C371.427 69.4242 371.594 70.8652 371.93 73.7472C371.99 74.0869 371.979 74.4356 371.896 74.7705C371.813 75.1054 371.66 75.419 371.447 75.6908C371.208 75.9447 370.918 76.1443 370.595 76.2762C370.272 76.408 369.925 76.4689 369.577 76.4549L365.556 76.6761C366.166 84.1828 366.467 87.9294 367.077 95.4427C367.134 95.7747 367.116 96.1151 367.026 96.4395C366.935 96.764 366.774 97.0644 366.554 97.3194C366.055 97.8147 365.381 98.0939 364.678 98.0968C360.931 98.3649 359.054 98.4856 355.294 98.7068C354.58 98.7942 353.859 98.6021 353.284 98.1706C353.031 97.9327 352.834 97.6414 352.708 97.3179C352.581 96.9945 352.528 96.647 352.553 96.3006C352.372 88.8074 352.285 85.0607 352.097 77.5742L347.754 77.6345C347.409 77.6579 347.063 77.6105 346.737 77.4952C346.41 77.38 346.111 77.1993 345.857 76.9643C345.63 76.7106 345.459 76.4116 345.355 76.0871C345.251 75.7625 345.216 75.4197 345.254 75.0809C345.314 72.4469 345.348 71.1265 345.408 68.4925C345.396 68.1637 345.448 67.8355 345.563 67.5272C345.678 67.2189 345.854 66.9364 346.079 66.6963C346.568 66.2261 347.216 65.9559 347.895 65.9389C356.079 65.3893 360.167 65.0676 368.33 64.3102C368.662 64.2543 369.002 64.2658 369.329 64.3441C369.656 64.4224 369.964 64.5659 370.234 64.766" fill="#1D9AA0"/>
<path d="M396.842 62.2126C398.805 62.4497 400.698 63.0934 402.398 64.1027C406.232 66.596 408.551 71.0128 409.295 77.3734C409.925 82.7353 409.06 87.132 406.614 90.5033C404.168 93.8746 399.965 95.8652 393.947 96.4751C387.425 97.0984 382.727 95.9255 379.905 93.0435C377.083 90.1615 375.529 86.4484 375.214 81.9243C375.071 79.8776 375.15 77.8215 375.448 75.7916C375.676 73.9248 376.173 72.1008 376.923 70.3761C378.343 67.3243 380.399 65.2443 383.089 64.1362C385.591 63.0819 388.236 62.4043 390.937 62.1255C392.901 61.9422 394.88 61.9804 396.835 62.2394M388.33 75.7849C387.69 76.6312 387.411 77.696 387.553 78.7474C387.61 79.9394 388.084 81.0735 388.893 81.9511C389.265 82.3358 389.722 82.6273 390.227 82.802C390.733 82.9766 391.272 83.0296 391.802 82.9565C392.028 82.942 392.253 82.9061 392.472 82.8492C393.573 82.6774 394.58 82.1277 395.321 81.2943C395.933 80.5347 396.156 79.4176 395.991 77.9431C395.887 76.9888 395.513 76.0841 394.912 75.3359C394.286 74.5316 393.055 74.2188 391.219 74.3975C390.67 74.4143 390.131 74.5465 389.637 74.7855C389.142 75.0246 388.704 75.3651 388.35 75.7849" fill="#1D9AA0"/>
<path d="M434.564 58.1967C435.488 58.2995 436.221 58.4022 436.762 58.505C437.973 58.7463 438.659 59.3741 438.82 60.3884C438.861 60.7222 438.861 61.0599 438.82 61.3937C438.551 63.2503 438.417 64.1819 438.149 66.0452C437.988 67.2337 437.437 67.904 436.494 68.0559C436.253 68.0835 436.011 68.0835 435.77 68.0559C435.502 68.0559 435.321 68.0157 435.22 68.0022C434.421 67.8771 433.449 67.7855 432.305 67.7274C431.504 67.6603 430.699 67.6603 429.899 67.7274C428.773 67.8883 428.277 68.4491 428.411 69.4097C428.431 69.5789 428.495 69.74 428.596 69.8774C428.697 70.0147 428.832 70.1238 428.987 70.1939C429.457 70.396 429.95 70.5401 430.455 70.6229C430.964 70.7234 431.594 70.824 432.325 70.9044C433.959 71.0746 435.578 71.3613 437.171 71.7623C438.597 72.1599 439.897 72.9142 440.951 73.9539C442.207 75.241 442.995 76.9117 443.189 78.6992C443.333 79.7584 443.376 80.8289 443.317 81.8962C443.174 84.8274 442.341 87.0615 440.817 88.5986C438.927 90.482 435.683 91.7688 431.098 92.4122C428.195 92.8152 425.261 92.961 422.332 92.8479C420.083 92.8062 417.842 92.5821 415.629 92.1777C415.108 92.0934 414.612 91.8967 414.175 91.6012C413.975 91.4375 413.812 91.2335 413.697 91.0025C413.581 90.7715 413.516 90.5188 413.505 90.2608C413.463 89.9584 413.463 89.6516 413.505 89.3492C413.827 86.8091 413.987 85.5356 414.296 82.9954C414.488 81.722 415.109 81.0205 416.159 80.8909C416.541 80.8638 416.925 80.8932 417.298 80.978C417.423 80.978 418.069 81.1009 419.235 81.3466C420.329 81.5703 421.438 81.7092 422.553 81.7622C422.683 81.7622 422.866 81.7622 423.103 81.7622C423.337 81.7622 423.612 81.7622 423.88 81.7622C424.137 81.7641 424.391 81.7078 424.623 81.5976C424.855 81.4873 425.06 81.3259 425.221 81.1255C425.442 80.7924 425.531 80.3881 425.468 79.9928C425.398 79.681 425.237 79.3969 425.006 79.1763C424.774 78.9557 424.483 78.8084 424.168 78.7528C423.411 78.5744 422.639 78.4623 421.863 78.4177C420.281 78.2912 418.711 78.0357 417.171 77.6536C415.795 77.2778 414.532 76.5714 413.491 75.596C412.299 74.4061 411.583 72.8205 411.481 71.1389C411.392 70.4456 411.369 69.7454 411.414 69.0478C411.601 64.7047 413.525 61.6752 417.171 60.013C419.413 59.0687 421.782 58.459 424.202 58.2034C426.851 57.8608 429.527 57.7844 432.191 57.9755C432.906 58.0247 433.726 58.1006 434.651 58.2034" fill="#1D9AA0"/>
<path d="M249.847 120.274C249.128 119.606 248.304 119.063 247.407 118.666C247.384 118.428 247.306 118.198 247.179 117.995L241.241 109.517C241.09 109.301 240.889 109.125 240.656 109.003C240.423 108.882 240.163 108.818 239.9 108.818C239.637 108.818 239.378 108.882 239.145 109.003C238.911 109.125 238.711 109.301 238.56 109.517L232.97 117.499L228.949 117.459L223.386 109.517C223.235 109.301 223.034 109.125 222.801 109.003C222.568 108.882 222.308 108.818 222.045 108.818C221.782 108.818 221.523 108.882 221.289 109.003C221.056 109.125 220.855 109.301 220.705 109.517L215.229 117.332L210.966 117.292L205.517 109.517C205.366 109.301 205.166 109.125 204.933 109.003C204.699 108.882 204.44 108.818 204.177 108.818C203.914 108.818 203.654 108.882 203.421 109.003C203.188 109.125 202.987 109.301 202.836 109.517L196.898 117.995C196.696 118.295 196.603 118.655 196.637 119.014C196.279 119.247 195.941 119.507 195.624 119.792C193.837 121.512 192.885 123.969 192.769 127.164L190.377 242.063C190.251 245.258 191.08 247.744 192.863 249.523C194.646 251.301 197.133 252.253 200.323 252.378L243.412 253.484C246.728 253.604 249.275 252.807 251.053 251.091C252.831 249.375 253.725 246.797 253.734 243.356L252.628 127.714C252.628 124.524 251.708 122.037 249.867 120.254" fill="#B4D333"/>
<path d="M410.059 242.72L401.581 236.782C401.365 236.631 401.189 236.431 401.067 236.197C400.946 235.964 400.882 235.705 400.882 235.442C400.882 235.179 400.946 234.919 401.067 234.686C401.189 234.453 401.365 234.252 401.581 234.101L410.059 228.163C410.139 228.127 410.222 228.097 410.307 228.076L410.274 224.932C410.2 224.914 410.129 224.889 410.059 224.859L401.581 218.92C401.365 218.77 401.189 218.569 401.067 218.336C400.946 218.102 400.882 217.843 400.882 217.58C400.882 217.317 400.946 217.058 401.067 216.824C401.189 216.591 401.365 216.39 401.581 216.239L410.059 210.301H410.113L410.08 207.017L401.601 201.079C401.385 200.928 401.209 200.727 401.088 200.494C400.966 200.261 400.902 200.001 400.902 199.738C400.902 199.475 400.966 199.216 401.088 198.982C401.209 198.749 401.385 198.549 401.601 198.398L409.939 192.56L409.369 141.026H409.329L409.201 131.106H409.242V128.237C409.242 121.732 405.866 118.356 399.114 118.11L370.964 117.554C369.119 117.447 367.276 117.801 365.603 118.586H365.703C364.862 118.976 364.091 119.503 363.424 120.148C361.583 121.935 360.663 124.419 360.663 127.601L360.408 160.529L360.294 175.523L338.746 125.255C336.655 120.224 332.728 117.708 326.964 117.708L289.035 118.258C282.404 118.503 279.028 121.819 278.908 128.204L274.122 243.103C273.876 249.979 277.192 253.417 284.068 253.417H317.212C320.523 253.417 323.038 252.524 324.758 250.736C326.479 248.949 327.276 246.402 327.151 243.096L325.422 204.852L344.571 245.361C346.903 250.276 350.831 252.792 356.353 252.908L400.361 254.195C407.113 254.436 410.488 251.121 410.488 244.249V242.855C410.344 242.828 410.204 242.781 410.073 242.714" fill="#B4D333"/>
<path d="M545.93 236.594C546.623 235.795 547.293 234.975 547.941 234.135C557.445 221.838 562.197 205.386 562.197 184.778C562.197 173.639 560.816 163.88 558.175 155.355L557.921 154.537C557.78 154.102 557.659 153.659 557.512 153.23C556.44 150.054 555.118 146.968 553.558 144.001H553.658C550.485 137.89 546.126 132.472 540.836 128.063C534.483 123.226 527.171 119.799 519.389 118.01C511.64 116.142 503.7 115.184 495.73 115.154C485.417 115.154 474.644 116.942 463.411 120.516C454.215 123.432 446.588 129.229 440.475 137.708C439.067 139.671 437.773 141.714 436.601 143.827C435.191 146.417 433.968 149.105 432.942 151.87C432.768 152.326 432.593 152.781 432.426 153.251L432.191 153.921C430.918 157.604 429.873 161.362 429.061 165.174C427.262 173.319 426.336 181.632 426.3 189.973C426.3 189.973 426.3 189.973 426.3 190.013C426.3 190.053 426.3 190.013 426.3 190.06C426.3 208.465 431.331 223.956 441.394 236.534C447.649 244.34 456.849 249.722 468.994 252.68C469.012 252.789 469.05 252.894 469.108 252.988L475.046 261.467C475.197 261.683 475.397 261.859 475.631 261.98C475.864 262.102 476.123 262.165 476.387 262.165C476.65 262.165 476.909 262.102 477.142 261.98C477.376 261.859 477.576 261.683 477.727 261.467L482.358 254.852C484.369 255.039 486.44 255.178 488.571 255.267L492.915 261.46C493.065 261.676 493.266 261.852 493.499 261.974C493.733 262.095 493.992 262.159 494.255 262.159C494.518 262.159 494.777 262.095 495.011 261.974C495.244 261.852 495.445 261.676 495.596 261.46L499.932 255.267C502.054 255.173 504.119 255.026 506.125 254.825L510.776 261.46C510.927 261.676 511.128 261.852 511.361 261.974C511.594 262.095 511.854 262.159 512.117 262.159C512.38 262.159 512.639 262.095 512.873 261.974C513.106 261.852 513.307 261.676 513.457 261.46L519.396 252.982C519.513 252.802 519.589 252.598 519.617 252.385C529.813 249.615 538.08 244.923 544.415 238.31C544.795 237.917 545.166 237.515 545.528 237.104C545.676 236.943 545.83 236.789 545.97 236.621M505.515 194.396C502.834 197.22 498.906 198.938 493.732 199.55C492.882 199.693 492.02 199.756 491.159 199.738C486.489 199.738 482.805 198.02 480.106 194.584C477.408 191.148 476.067 186.669 476.085 181.146C476.072 179.485 476.261 177.828 476.648 176.213C477.252 173.728 478.474 171.437 480.2 169.551C482.962 166.548 486.918 165.044 492.07 165.04C499.434 165.04 504.188 166.789 506.333 170.288C508.415 173.563 509.532 177.359 509.557 181.24C509.655 184.439 509.125 187.627 507.995 190.623C507.419 192.033 506.589 193.325 505.549 194.437" fill="#B4D333"/>
<path d="M163.567 147.03C157.186 137.199 150.129 130.388 142.394 126.594C136.621 123.77 129.041 121.561 119.653 119.965C110.569 118.48 101.384 117.687 92.1799 117.593C92.1799 117.593 77.2471 117.425 74.2846 117.968C70.5313 118.109 66.1748 118.29 61.1882 118.518C54.678 118.884 51.4251 122.32 51.4296 128.826L51.2955 149.422L51.2553 155.991V166.674L51.1749 166.721L51.0073 192.405C51.0073 192.405 50.947 192.405 50.9202 192.405L42.4417 198.343C42.226 198.494 42.0499 198.694 41.9283 198.927C41.8067 199.161 41.7432 199.42 41.7432 199.683C41.7432 199.946 41.8067 200.206 41.9283 200.439C42.0499 200.672 42.226 200.873 42.4417 201.024L50.9068 206.955V210.307L42.4618 216.225C42.2461 216.375 42.07 216.576 41.9484 216.809C41.8267 217.043 41.7632 217.302 41.7632 217.565C41.7632 217.828 41.8267 218.088 41.9484 218.321C42.07 218.554 42.2461 218.755 42.4618 218.906L50.813 224.757V228.255L42.4886 234.086C42.2729 234.237 42.0968 234.438 41.9752 234.671C41.8536 234.905 41.79 235.164 41.79 235.427C41.79 235.69 41.8536 235.949 41.9752 236.183C42.0968 236.416 42.2729 236.617 42.4886 236.767L50.8264 242.612C51.2955 248.262 54.4322 251.325 60.3035 251.801C74.1753 253.432 88.1322 254.231 102.099 254.194C109.695 254.194 116.621 253.948 122.877 253.456C128.645 253.09 135.091 251.341 142.213 248.208C149.335 245.076 155.904 239.428 161.918 231.265C167.932 223.101 171.554 211.962 172.783 197.847C173.028 195.514 173.151 192.139 173.151 187.72C173.151 170.41 169.959 156.844 163.573 147.023M119.291 196.372C118 199.442 115.942 201.345 113.118 202.083C110.365 202.88 107.513 203.282 104.646 203.276C102.497 203.364 100.344 203.332 98.1986 203.182L99.3046 169.67H102.709C104.744 169.691 106.774 169.845 108.788 170.133C110.889 170.387 112.922 171.045 114.774 172.07C116.735 173.173 118.299 175.108 119.465 177.874C120.656 180.763 121.251 183.864 121.215 186.989C121.207 190.215 120.551 193.406 119.284 196.372" fill="#B4D333"/>
<path d="M157.602 95.7718C156.879 95.4578 156.31 94.8711 156.017 94.1394C155.725 93.4076 155.733 92.5899 156.04 91.8643L169.626 60.1889C169.94 59.4661 170.527 58.8966 171.258 58.6041C171.99 58.3116 172.808 58.32 173.534 58.6273C174.256 58.9413 174.826 59.5279 175.118 60.2597C175.411 60.9914 175.402 61.8091 175.095 62.5347L161.503 94.2101C161.189 94.9329 160.602 95.5025 159.87 95.795C159.139 96.0874 158.321 96.0791 157.595 95.7718" fill="#1D9AA0"/>
<path d="M157.903 97.2842L156.301 96.6139C155.279 96.1731 154.473 95.3451 154.06 94.3113C153.646 93.2774 153.659 92.122 154.096 91.0979L161.69 73.3567C162.132 72.3356 162.96 71.5307 163.994 71.1176C165.027 70.7045 166.182 70.7168 167.206 71.1517L168.808 71.8219C169.829 72.2642 170.634 73.0922 171.047 74.1256C171.46 75.1589 171.448 76.3136 171.013 77.3379L163.412 95.0523C162.97 96.0734 162.142 96.8783 161.109 97.2914C160.075 97.7045 158.921 97.6922 157.896 97.2573" fill="#B4D333"/>
<path d="M194.727 9.2899C191.299 7.80762 187.611 7.02012 183.876 6.97296C180.142 6.92579 176.435 7.6199 172.971 9.01512C169.499 10.3909 166.335 12.4416 163.661 15.0486C160.988 17.6556 158.858 20.7669 157.395 24.2027C155.038 29.7382 154.491 35.8772 155.833 41.7421C157.175 47.607 160.338 52.8973 164.868 56.8566V56.9236L164.787 57.118C164.498 57.7901 164.345 58.5129 164.337 59.2446C164.329 59.9763 164.466 60.7023 164.74 61.3807C165.01 62.0616 165.411 62.6823 165.922 63.2069C166.433 63.7315 167.043 64.1496 167.716 64.4369L173.427 66.89C174.119 67.1871 174.865 67.3399 175.618 67.3391C176.708 67.3423 177.774 67.0267 178.687 66.4312C179.599 65.8358 180.317 64.9865 180.752 63.9879L180.84 63.7868V63.7265C186.832 64.2832 192.848 62.9298 198.024 59.8599C203.201 56.7899 207.274 52.1609 209.66 46.6355C212.627 39.7024 212.721 31.8751 209.921 24.8728C207.121 17.8705 201.656 12.2658 194.727 9.2899ZM202.019 43.3513C200.979 45.7788 199.469 47.9763 197.576 49.8169C195.682 51.6575 193.443 53.1047 190.987 54.0751C188.532 55.0645 185.906 55.5569 183.26 55.5235C180.613 55.4901 178 54.9318 175.571 53.8807C173.144 52.8412 170.947 51.331 169.106 49.4375C167.265 47.544 165.818 45.3046 164.848 42.8486C163.858 40.3941 163.366 37.7676 163.399 35.1214C163.433 32.4752 163.991 29.862 165.042 27.4332C166.082 25.0059 167.592 22.8086 169.486 20.9681C171.379 19.1275 173.618 17.6801 176.074 16.7094C178.45 15.7554 180.987 15.2641 183.547 15.2617C186.276 15.2648 188.977 15.8236 191.483 16.9038C193.91 17.9434 196.108 19.4535 197.948 21.347C199.789 23.2406 201.236 25.4799 202.207 27.9359C203.196 30.3904 203.688 33.0169 203.655 35.6631C203.622 38.3093 203.063 40.9225 202.012 43.3513" fill="#B4D333"/>
</svg>
