<svg width="20" height="20" viewBox="0 0 20 20" fill="none" xmlns="http://www.w3.org/2000/svg">
<path d="M17.0547 2.92767C14.9727 0.844673 12.1327 -0.206327 9.15068 0.0336734C5.14168 0.355673 1.62768 3.14367 0.451678 6.98967C-0.388322 9.73767 -0.0353224 12.6067 1.33268 14.9767L0.0366776 19.2797C-0.0873224 19.6927 0.289678 20.0817 0.706678 19.9707L5.21068 18.7637C6.66968 19.5597 8.31168 19.9787 9.98368 19.9797H9.98768C14.1827 19.9797 18.0587 17.4137 19.3997 13.4387C20.7057 9.56267 19.7397 5.61567 17.0547 2.92767ZM14.8757 13.5537C14.6677 14.1367 13.6487 14.6987 13.1907 14.7397C12.7327 14.7817 12.3037 14.9467 10.1957 14.1157C7.65868 13.1157 6.05668 10.5147 5.93268 10.3487C5.80768 10.1817 4.91368 8.99567 4.91368 7.76767C4.91368 6.53967 5.55868 5.93567 5.78768 5.68667C6.01668 5.43667 6.28668 5.37467 6.45368 5.37467C6.61968 5.37467 6.78668 5.37467 6.93168 5.38067C7.10968 5.38767 7.30668 5.39667 7.49368 5.81167C7.71568 6.30567 8.20068 7.53967 8.26268 7.66467C8.32468 7.78967 8.36668 7.93567 8.28368 8.10167C8.20068 8.26767 8.15868 8.37167 8.03468 8.51767C7.90968 8.66367 7.77268 8.84267 7.66068 8.95467C7.53568 9.07867 7.40568 9.21467 7.55068 9.46367C7.69668 9.71367 8.19668 10.5307 8.93868 11.1917C9.89268 12.0417 10.6957 12.3047 10.9457 12.4307C11.1957 12.5557 11.3407 12.5347 11.4867 12.3677C11.6327 12.2017 12.1107 11.6397 12.2767 11.3897C12.4427 11.1397 12.6097 11.1817 12.8387 11.2647C13.0677 11.3477 14.2947 11.9517 14.5437 12.0767C14.7937 12.2017 14.9597 12.2637 15.0217 12.3677C15.0837 12.4707 15.0837 12.9707 14.8757 13.5537Z" fill="#b2101b"/>
</svg>
